<svg width="18" height="18" viewBox="0 0 18 18" fill="none" xmlns="http://www.w3.org/2000/svg">
<path d="M17.5 18C17.7761 18 18 17.7761 18 17.5L18 0.5C18 0.223858 17.7761 -1.95703e-08 17.5 -4.37114e-08L0.500002 -1.5299e-06C0.223859 -1.55404e-06 1.55404e-06 0.223856 1.5299e-06 0.499998L4.37114e-08 17.5C1.95703e-08 17.7761 0.223858 18 0.5 18L17.5 18ZM10 2.5C10 2.22386 10.2239 2 10.5 2L15.5 2C15.7761 2 16 2.22386 16 2.5L16 7.5C16 7.77614 15.7761 8 15.5 8L10.5 8C10.2239 8 10 7.77614 10 7.5L10 2.5ZM10 10.5C10 10.2239 10.2239 10 10.5 10L15.5 10C15.7761 10 16 10.2239 16 10.5L16 15.5C16 15.7761 15.7761 16 15.5 16L10.5 16C10.2239 16 10 15.7761 10 15.5L10 10.5ZM2 2.5C2 2.22386 2.22386 2 2.5 2L7.5 2C7.77614 2 8 2.22386 8 2.5L8 7.5C8 7.77614 7.77614 8 7.5 8L2.5 8C2.22386 8 2 7.77614 2 7.5L2 2.5ZM2 10.5C2 10.2239 2.22386 10 2.5 10L7.5 10C7.77614 10 8 10.2239 8 10.5L8 15.5C8 15.7761 7.77614 16 7.5 16L2.5 16C2.22386 16 2 15.7761 2 15.5L2 10.5Z" fill="#0077BD"/>
</svg>
