<svg width="20" height="20" viewBox="0 0 20 20" fill="none" xmlns="http://www.w3.org/2000/svg">
<path d="M10 0C4.486 0 0 4.486 0 10C0 15.514 4.486 20 10 20C15.514 20 20 15.514 20 10C20 4.486 15.514 0 10 0ZM10 18C5.589 18 2 14.411 2 10C2 5.589 5.589 2 10 2C14.411 2 18 5.589 18 10C18 14.411 14.411 18 10 18Z" fill="#57808D"/>
<path d="M9.934 4C8.89104 4.00132 7.89119 4.41622 7.1537 5.1537C6.41622 5.89118 6.00132 6.89104 6 7.934H8C8 6.867 8.868 6 9.934 6C11 6 11.868 6.867 11.868 7.934C11.868 8.532 11.387 8.966 10.652 9.56C10.4119 9.7481 10.1813 9.94801 9.961 10.159C8.963 11.156 8.934 12.215 8.934 12.333V13H10.934L10.933 12.367C10.934 12.351 10.966 11.981 11.374 11.574C11.524 11.424 11.713 11.274 11.909 11.116C12.688 10.485 13.867 9.532 13.867 7.934C13.8662 6.89106 13.4516 5.89104 12.7142 5.15347C11.9769 4.41591 10.9769 4.00106 9.934 4ZM8.934 14H10.934V16H8.934V14Z" fill="#57808D"/>
</svg>
