<svg width="185" height="188" viewBox="0 0 185 188" fill="none" xmlns="http://www.w3.org/2000/svg">
<path d="M170.301 175.559H17.4744C-1.20605 149.335 -3.15644 112.988 12.4236 84.8099C15.888 78.5455 20.2396 72.4256 21.0342 65.3089C22.0946 55.8314 16.6335 46.9059 15.261 37.4689C13.5187 25.4718 19.0491 12.7061 28.9947 5.7772C38.9402 -1.15174 52.8328 -1.92323 63.4833 3.87016C73.085 9.09142 80.1787 19.1005 90.8495 21.4699C103.396 24.2582 115.41 15.4482 128.109 13.4834C138.803 11.8277 150.182 15.3933 158.021 22.854C165.86 30.3146 169.983 41.5026 168.859 52.2658C167.253 67.6551 155.724 81.5506 157.68 96.9023C158.983 107.134 166.051 115.554 170.42 124.898C177.49 140.013 177.791 160.647 170.301 175.559Z" fill="#C6D8EE"/>
<path d="M36.8049 95.7495C37.1429 94.7237 36.9927 93.6344 36.5361 92.6895C36.0767 91.7475 35.2994 90.9587 34.317 90.5686C32.306 89.8087 30.2833 90.9096 29.7285 92.9033C29.4252 93.9262 29.116 94.9404 28.801 95.943C28.2723 97.6103 26.0185 97.6854 25.2557 96.1193L25.1661 95.9344C24.8742 95.3131 24.6026 94.689 24.409 94.0447C24.2126 93.4003 24.0768 92.7357 24.0016 92.0654C23.8687 90.716 23.9149 89.3637 24.2328 88.0317C24.6604 86.2344 25.0823 84.3939 25.4088 82.5619C25.5822 81.6402 25.7469 80.7127 25.9087 79.7736L26.1456 78.3606C26.2236 77.8868 26.2814 77.4245 26.3479 76.9506C26.6281 74.8557 25.169 72.6511 23.0481 72.2292C20.9532 71.7842 19.13 73.1972 18.8902 75.2631C18.7659 76.3149 18.6503 77.3464 18.4799 78.3982C18.3469 79.2708 17.7257 79.8083 17.0178 79.9527C16.6624 80.025 16.2867 79.999 15.94 79.8632C15.5962 79.7245 15.2639 79.4904 15.0009 79.1379L13.5967 77.2395C13.1286 76.6067 12.6691 75.9682 12.1693 75.3614C11.522 74.5523 10.6176 74.0727 9.68721 73.9629C8.7568 73.8531 7.80039 74.1131 7.02601 74.7575C6.25452 75.3989 5.80665 76.2976 5.69685 77.2164C5.58994 78.1353 5.8211 79.0772 6.42789 79.8372C6.89887 80.4064 7.3294 81.0103 7.77149 81.6055L9.09198 83.3912C9.34047 83.7206 9.44738 84.0876 9.43582 84.4545C9.42716 84.8157 9.30869 85.1682 9.10931 85.4687C8.71346 86.0669 7.99109 86.4598 7.17915 86.3385C6.21407 86.1853 5.21431 86.0726 4.23767 85.9599C2.30751 85.7403 0.484257 87.1533 0.0797315 88.9939C-0.0213998 89.4562 -0.0242892 89.8983 0.0595053 90.3086C0.146189 90.716 0.290662 91.1119 0.52182 91.4441C0.978355 92.1145 1.72962 92.5826 2.67736 92.7068C3.09922 92.7646 3.53264 92.8137 3.94584 92.8802L5.19986 93.0825C6.0407 93.2212 6.88442 93.3685 7.73682 93.5246C9.45605 93.8251 11.1262 94.2065 12.8338 94.6081C14.0936 94.9086 15.287 95.4576 16.2579 96.2551C16.752 96.6481 17.2056 97.0959 17.613 97.5872C18.0175 98.0784 18.3903 98.6071 18.6619 99.1937L18.7457 99.3671C19.4738 100.864 17.9655 102.476 16.3821 101.976C15.4344 101.679 14.4953 101.395 13.5591 101.121C11.6723 100.604 9.64964 101.705 8.97062 103.456C8.60944 104.343 8.647 105.233 9.0024 105.964C9.35492 106.698 10.0484 107.27 10.9355 107.556C12.5449 108.059 14.1803 108.59 15.8187 109.165C17.4223 109.755 19.0433 110.382 20.6787 111.043C21.2913 111.286 21.8403 111.601 22.3575 111.965C22.8747 112.332 23.3515 112.751 23.7849 113.213C24.2126 113.679 24.6084 114.184 24.9291 114.736C25.2383 115.288 25.4955 115.877 25.6891 116.496L25.7469 116.681C26.2496 118.267 24.5188 119.619 23.0192 118.88C22.1235 118.44 21.2306 118.013 20.3407 117.6C18.5897 116.782 16.4168 117.55 15.443 119.183C14.9547 120.001 14.8622 120.879 15.1107 121.656C15.3477 122.434 15.888 123.124 16.7462 123.537C17.509 123.91 18.2776 124.289 19.0462 124.682C19.8119 125.072 20.5487 125.482 21.3058 125.895C22.0599 126.311 22.8141 126.736 23.5711 127.17L24.7095 127.828L25.8191 128.51C26.9142 129.189 27.8446 130.091 28.5641 131.14C29.2518 132.194 29.7054 133.405 29.9135 134.679L30.0348 135.433L30.1273 136.19C30.2458 137.156 30.7572 137.982 31.4911 138.548C32.225 139.115 33.1786 139.421 34.1783 139.32C35.1781 139.216 36.0334 138.716 36.6055 137.973C37.1776 137.234 37.4694 136.248 37.3423 135.22L37.244 134.413L37.1169 133.613C36.8973 132.258 36.9551 130.888 37.2325 129.568C37.481 128.25 37.9751 126.976 38.7032 125.809L39.4372 124.618L40.1364 123.419C40.5987 122.616 41.061 121.801 41.5176 120.98C41.9712 120.16 42.4422 119.322 42.8727 118.484C43.3033 117.649 43.728 116.802 44.1528 115.947C44.6209 114.993 44.696 113.878 44.3926 112.872C44.0776 111.873 43.4217 110.977 42.5029 110.437C40.6681 109.359 38.4952 110.127 37.6052 112.02C37.1545 112.982 36.6979 113.93 36.2356 114.869C35.4641 116.426 33.2161 116.152 32.6903 114.491L32.6267 114.294C32.4186 113.641 32.2771 112.974 32.199 112.3C32.1095 111.63 32.0632 110.96 32.0921 110.286C32.1181 109.613 32.2048 108.943 32.3551 108.281C32.5024 107.619 32.722 106.963 32.9705 106.336C33.664 104.635 34.3401 102.895 34.9989 101.121C35.6288 99.37 36.2212 97.5785 36.8049 95.7495Z" fill="#CEA152"/>
<path d="M33.3346 93.3078L33.1699 93.2413C32.751 94.6629 32.3378 96.0557 31.8841 97.4426C31.4131 98.8353 30.9335 100.205 30.4423 101.554C30.1909 102.23 29.9597 102.892 29.6881 103.565L28.8791 105.559C28.3301 106.88 27.7926 108.168 27.209 109.451C24.9928 103.502 22.2767 97.7373 19.1502 92.2127C19.5201 90.8488 19.8784 89.4619 20.2222 88.0576C20.4014 87.3497 20.5459 86.6562 20.6961 85.9512L21.1353 83.8217C21.7334 80.9438 22.1466 78.0658 22.5454 75.0752L22.3749 75.0348C22.1813 76.5113 21.9733 77.9705 21.7508 79.4066C21.6352 80.1289 21.5312 80.8339 21.3983 81.5534L20.9851 83.6945C20.699 85.1132 20.4158 86.5031 20.0893 87.8871C19.7484 89.2799 19.3959 90.6553 19.0318 92.0075C16.0585 86.7805 12.6952 81.773 8.97066 77.0516L8.83774 77.1557C12.5565 81.8713 15.914 86.87 18.8844 92.0913C17.5206 91.7243 16.1712 91.3776 14.8334 91.0511C13.4811 90.7333 12.1144 90.4559 10.7737 90.1872L8.77129 89.8058C8.10671 89.6815 7.41902 89.5833 6.75155 89.4792C5.40795 89.2741 4.0759 89.092 2.7612 88.9273L2.72363 89.0863C5.37038 89.4243 8.12694 89.8115 10.8141 90.3663L12.8599 90.7853C13.5418 90.9326 14.241 91.0771 14.9085 91.2447C16.2608 91.5741 17.6246 91.9266 19.0029 92.2994C22.1264 97.8154 24.8367 103.571 27.0501 109.512C25.7729 108.931 24.4669 108.385 23.1897 107.856L21.274 107.082C20.6412 106.828 19.9766 106.594 19.3352 106.357C18.0407 105.886 16.7549 105.438 15.4806 105.013C14.1919 104.594 12.883 104.21 11.603 103.84L11.5423 103.99C16.7751 105.455 21.9299 107.397 27.131 109.737C29.4021 115.851 31.1878 122.145 32.4534 128.542C27.8129 125.407 22.973 122.72 18.1563 120.437L18.0754 120.573C22.9297 122.881 27.8244 125.598 32.4996 128.773C32.6238 129.415 32.7596 130.053 32.8781 130.695L33.1902 132.628L33.5022 134.561C33.6091 135.205 33.6698 135.855 33.7536 136.502L33.9212 136.482C33.8345 135.835 33.7767 135.182 33.6698 134.538L33.3578 132.602L33.0457 130.666C32.9301 130.021 32.7943 129.383 32.6672 128.741C35.8745 124.017 38.7062 118.958 41.3096 113.557L41.1564 113.468C38.5877 118.81 35.7849 123.823 32.6209 128.507C31.3525 122.101 29.5668 115.799 27.2899 109.677C29.6159 104.522 31.705 99.026 33.3346 93.3078Z" fill="#003E52"/>
<path d="M19.2166 118.354C16.7866 122.113 15.391 126.392 15.0413 130.781C14.6859 135.168 15.3765 139.658 17.0004 143.784C18.6243 147.91 21.1786 151.666 24.4263 154.634C27.6741 157.607 31.6124 159.786 35.9524 160.884C37.0533 156.532 37.4289 152.308 37.1949 148.283C36.9608 144.255 36.1142 140.423 34.6926 136.82C33.2768 133.214 31.2859 129.834 28.7114 126.727C26.1398 123.624 22.9874 120.787 19.2166 118.354Z" fill="#4F9E45"/>
<path d="M34.4671 141.467C34.4267 141.452 34.3805 141.472 34.3631 141.51C33.0253 144.605 31.8175 147.783 30.6993 151.057C28.6362 146.887 26.7956 142.608 25.1515 138.256C26.2726 135.786 27.4602 133.373 28.7055 131.021C28.7258 130.984 28.7113 130.937 28.6709 130.917C28.6304 130.9 28.5842 130.914 28.564 130.952C27.9629 132.099 27.3475 133.275 26.7725 134.454C26.2004 135.633 25.6167 136.835 25.0706 138.043C23.8541 134.783 22.7561 131.481 21.7824 128.14C22.34 127.126 22.8948 126.129 23.4814 125.135C23.5045 125.098 23.4901 125.049 23.4525 125.028C23.4149 125.008 23.3658 125.02 23.3427 125.057L22.5163 126.485L21.7159 127.924C21.0976 125.826 20.5515 123.708 20.0343 121.584C20.0227 121.541 19.9794 121.515 19.936 121.526C19.8927 121.538 19.8667 121.578 19.8782 121.622C20.6468 124.861 21.5483 128.065 22.5539 131.238C21.7968 130.842 21.034 130.44 20.2712 130.03C19.5199 129.617 18.7658 129.195 18.0116 128.767C17.9741 128.744 17.9249 128.759 17.9018 128.799C17.8816 128.84 17.896 128.889 17.9336 128.912C18.7138 129.354 19.4853 129.79 20.2683 130.212C21.0542 130.634 21.8402 131.05 22.6203 131.455C23.8166 135.214 25.1717 138.924 26.6771 142.57C25.0359 141.883 23.3745 141.166 21.7419 140.4C20.9242 140.019 20.0892 139.635 19.2772 139.233C18.4624 138.831 17.6447 138.424 16.8241 138.005C16.7836 137.985 16.7345 138.002 16.7171 138.043C16.6998 138.083 16.7171 138.135 16.7576 138.155C17.5898 138.577 18.419 138.993 19.2454 139.401C20.0747 139.805 20.9184 140.198 21.7477 140.585C23.4034 141.36 25.0995 142.085 26.7609 142.781C28.0785 145.948 29.5117 149.066 31.0547 152.129C30.3641 151.9 29.6648 151.666 28.9714 151.427L26.8996 150.681C25.5069 150.175 24.1315 149.638 22.7475 149.08C22.7041 149.063 22.6579 149.083 22.6434 149.127C22.629 149.17 22.6492 149.216 22.6926 149.234L24.8019 150.069C25.5069 150.34 26.2177 150.603 26.9227 150.86C27.6307 151.117 28.3299 151.372 29.0349 151.617L31.1587 152.331C32.1411 154.293 33.19 156.223 34.2649 158.139C34.2851 158.176 34.3342 158.191 34.3747 158.171C34.4122 158.148 34.4267 158.101 34.4065 158.061C33.7852 156.94 33.1495 155.824 32.5601 154.683C32.2625 154.114 31.9533 153.553 31.6672 152.978L30.8004 151.259C31.072 150.433 31.3725 149.6 31.6644 148.783C31.962 147.962 32.2538 147.153 32.5659 146.344C33.1958 144.723 33.8199 143.14 34.5076 141.565C34.5278 141.527 34.5076 141.481 34.4671 141.467Z" fill="#003E52"/>
<path d="M6.76891 126.736C5.95408 127.987 5.22594 129.308 4.5787 130.692C4.24352 131.388 3.98635 132.082 3.72919 132.795C3.47781 133.509 3.24665 134.234 3.03572 134.974C2.23245 137.918 1.87415 141.03 1.98395 144.165C2.18622 150.441 4.26374 156.821 7.83801 162.23C11.4152 167.636 16.4717 172.049 22.1698 174.69C25.013 176.019 28.0152 176.909 31.0404 177.322C31.8032 177.417 32.5632 177.49 33.3173 177.539C34.0744 177.582 34.8141 177.62 35.5856 177.582C37.1112 177.53 38.6137 177.374 40.0845 177.117C38.9633 171.159 37.5157 165.851 35.7445 161.069C33.9675 156.284 31.8437 152.022 29.2316 148.089C26.6369 144.145 23.548 140.522 19.8409 137.014C16.1279 133.509 11.8139 130.099 6.76891 126.736Z" fill="#4F9E45"/>
<path d="M30.0899 153.854C30.035 153.851 29.9801 153.891 29.9685 153.946C29.5207 156.122 29.2433 158.283 28.9948 160.552L28.9081 161.404L28.8474 162.245C28.8099 162.808 28.7752 163.375 28.7463 163.947C28.7174 164.519 28.6914 165.097 28.6712 165.677C28.6509 166.258 28.6278 166.851 28.6365 167.42C28.3504 167.151 28.0875 166.862 27.8188 166.576L27.0155 165.718L26.2122 164.86C25.9464 164.571 25.6719 164.293 25.4234 163.987L23.9035 162.193L23.1465 161.294L22.4299 160.361L20.9967 158.497C20.5286 157.87 20.0952 157.214 19.6445 156.576L18.9741 155.611L18.6389 155.128L18.324 154.631L17.0728 152.64C17.9339 149.083 19.029 145.674 20.3322 142.437C20.3524 142.385 20.3264 142.331 20.2715 142.313C20.2166 142.296 20.1559 142.328 20.1328 142.38C19.8207 143.168 19.5144 143.972 19.2139 144.789C18.9134 145.607 18.6129 146.439 18.3616 147.263C18.1015 148.092 17.8472 148.936 17.6016 149.791C17.356 150.646 17.1046 151.522 16.911 152.38C14.4868 148.367 12.4064 144.148 10.7074 139.779C11.0223 139.065 11.343 138.363 11.6638 137.673L11.9065 137.156L12.1694 136.635L12.7011 135.61C12.7271 135.558 12.7069 135.497 12.6549 135.471C12.6028 135.445 12.5364 135.468 12.5104 135.52C12.1752 136.167 11.8285 136.829 11.5106 137.491C11.2015 138.149 10.8981 138.817 10.5947 139.496L10.1959 138.464C10.0601 138.121 9.9272 137.78 9.8174 137.427L9.12104 135.329L8.77141 134.28C8.6645 133.928 8.57204 133.573 8.47091 133.217L7.87857 131.088C7.86123 131.03 7.80344 130.995 7.74565 131.01C7.68786 131.024 7.65319 131.082 7.67053 131.14C8.77719 135.494 10.3202 139.733 12.1665 143.824C11.0917 143.414 10.0052 142.981 8.91011 142.524C7.84967 142.053 6.78346 141.556 5.70569 141.039C5.65079 141.013 5.58722 141.036 5.56411 141.094C5.54099 141.152 5.567 141.218 5.6219 141.244C6.73723 141.776 7.82078 142.293 8.93611 142.77C10.0659 143.238 11.1841 143.683 12.2908 144.105C14.5012 148.95 17.1884 153.573 20.2975 157.896C19.1186 157.694 17.9252 157.471 16.7174 157.223L15.8102 157.035C15.5096 156.969 15.2178 156.893 14.9173 156.824C14.3221 156.68 13.724 156.526 13.1229 156.37C12.5219 156.214 11.918 156.05 11.3084 155.882L10.3953 155.625C10.089 155.538 9.79717 155.44 9.49956 155.348C8.30621 154.966 7.1013 154.562 5.88195 154.134C5.82127 154.114 5.76059 154.146 5.74903 154.206C5.73459 154.267 5.77215 154.336 5.83283 154.356C7.06952 154.793 8.29176 155.203 9.50245 155.587C10.1006 155.787 10.7362 155.951 11.3488 156.125C11.9643 156.295 12.5797 156.46 13.1894 156.619C13.7991 156.778 14.4059 156.931 15.0069 157.075L15.4576 157.185L15.92 157.284L16.8417 157.474C18.0668 157.723 19.2746 157.948 20.4709 158.15C23.1985 161.889 26.2382 165.4 29.5582 168.628C28.5758 168.639 27.5732 168.645 26.5705 168.625C25.5852 168.587 24.5884 168.538 23.577 168.477L22.0543 168.373C21.5429 168.336 21.0285 168.295 20.5287 168.235C19.5202 168.122 18.5002 167.995 17.4716 167.856C17.408 167.847 17.356 167.891 17.3531 167.954C17.3502 168.018 17.3994 168.076 17.4629 168.084C18.5118 168.226 19.5491 168.356 20.5749 168.469C21.6093 168.576 22.6611 168.642 23.6839 168.708C24.7126 168.769 25.721 168.824 26.7323 168.85C27.7581 168.862 28.7723 168.859 29.7721 168.844C31.8843 170.922 34.1612 172.826 36.493 174.652C36.5392 174.69 36.6056 174.681 36.6432 174.635C36.6808 174.589 36.6721 174.519 36.6259 174.482C35.2794 173.398 33.9011 172.352 32.6297 171.179L31.6589 170.321C31.3324 170.035 31.0087 169.752 30.7054 169.445L28.8474 167.636C28.8272 166.478 28.8908 165.273 28.9428 164.114C28.9717 163.533 29.0063 162.956 29.0439 162.383C29.0844 161.808 29.1161 161.251 29.1826 160.67C29.304 159.52 29.4427 158.387 29.5958 157.278C29.6767 156.72 29.7432 156.183 29.8501 155.619C29.9512 155.062 30.0552 154.51 30.1621 153.964C30.1824 153.906 30.1477 153.86 30.0899 153.854Z" fill="#003E52"/>
<path d="M161.575 117.903C163.41 120.743 164.464 123.974 164.727 127.288C164.996 130.599 164.473 133.989 163.248 137.106C162.02 140.221 160.093 143.059 157.64 145.301C155.186 147.546 152.213 149.19 148.936 150.019C148.107 146.734 147.821 143.544 147.997 140.504C148.174 137.465 148.812 134.569 149.887 131.85C150.956 129.129 152.462 126.574 154.403 124.228C156.345 121.882 158.726 119.741 161.575 117.903Z" fill="#4F9E45"/>
<path d="M150.057 135.355C150.089 135.344 150.124 135.358 150.135 135.39C151.144 137.728 152.057 140.126 152.901 142.599C154.458 139.45 155.848 136.219 157.09 132.934C156.244 131.067 155.348 129.247 154.406 127.473C154.392 127.444 154.403 127.409 154.432 127.395C154.461 127.38 154.499 127.392 154.513 127.421C154.967 128.288 155.432 129.175 155.865 130.065C156.299 130.955 156.738 131.862 157.151 132.775C158.07 130.313 158.899 127.82 159.633 125.297C159.214 124.531 158.792 123.777 158.35 123.029C158.333 123 158.344 122.965 158.373 122.948C158.402 122.931 158.44 122.942 158.457 122.971L159.081 124.049L159.685 125.135C160.15 123.552 160.564 121.951 160.956 120.348C160.965 120.316 160.997 120.295 161.029 120.304C161.061 120.313 161.081 120.345 161.072 120.376C160.491 122.821 159.809 125.242 159.052 127.638C159.624 127.34 160.199 127.034 160.774 126.725C161.341 126.412 161.91 126.095 162.482 125.771C162.511 125.754 162.549 125.765 162.563 125.794C162.58 125.823 162.569 125.861 162.54 125.878C161.95 126.21 161.37 126.54 160.777 126.86C160.182 127.178 159.593 127.493 159 127.799C158.096 130.64 157.076 133.44 155.937 136.193C157.177 135.673 158.431 135.133 159.665 134.555C160.283 134.266 160.913 133.977 161.526 133.674C162.141 133.37 162.76 133.061 163.378 132.746C163.41 132.732 163.444 132.743 163.459 132.775C163.473 132.807 163.459 132.844 163.427 132.859C162.797 133.18 162.173 133.492 161.549 133.798C160.922 134.104 160.286 134.399 159.659 134.691C158.408 135.277 157.128 135.823 155.874 136.349C154.877 138.739 153.796 141.094 152.632 143.408C153.155 143.235 153.681 143.059 154.207 142.877L155.773 142.313C156.825 141.932 157.862 141.524 158.908 141.103C158.94 141.091 158.974 141.105 158.986 141.137C158.997 141.169 158.98 141.207 158.948 141.218L157.356 141.851C156.825 142.056 156.287 142.253 155.755 142.449C155.221 142.643 154.692 142.836 154.16 143.021L152.557 143.559C151.814 145.041 151.023 146.497 150.211 147.942C150.193 147.971 150.159 147.982 150.13 147.965C150.101 147.948 150.089 147.913 150.107 147.881C150.575 147.035 151.054 146.191 151.502 145.333C151.728 144.902 151.962 144.48 152.178 144.047L152.831 142.75C152.626 142.125 152.401 141.498 152.178 140.88C151.953 140.259 151.733 139.649 151.496 139.039C151.02 137.814 150.549 136.618 150.031 135.431C150.014 135.399 150.029 135.367 150.057 135.355Z" fill="#003E52"/>
<path d="M177.415 123.933C171.98 127.528 167.348 131.27 163.395 135.162C159.443 139.06 156.18 143.128 153.493 147.543C150.789 151.947 148.656 156.706 146.989 162.002C145.327 167.293 144.108 173.124 143.386 179.599C144.984 179.761 146.605 179.81 148.24 179.755C149.066 179.735 149.855 179.645 150.664 179.547C151.468 179.443 152.274 179.316 153.083 179.16C156.284 178.518 159.425 177.388 162.375 175.817C168.284 172.69 173.43 167.79 177.016 161.924C180.602 156.055 182.616 149.242 182.706 142.556C182.758 139.216 182.33 135.904 181.443 132.761C181.212 131.972 180.96 131.195 180.686 130.435C180.406 129.672 180.125 128.926 179.767 128.184C179.071 126.701 178.288 125.283 177.415 123.933Z" fill="#4F9E45"/>
<path d="M170.57 166.44C170.561 166.374 170.5 166.33 170.437 166.345C167.885 166.952 165.27 167.388 162.745 167.772L161.8 167.911L160.838 168.027L158.931 168.235L157.047 168.414C156.423 168.469 155.807 168.524 155.172 168.55C155.464 168.243 155.729 167.917 156.001 167.593L156.816 166.622L157.631 165.651C157.899 165.328 158.18 165.01 158.431 164.669L159.977 162.661L160.748 161.655L161.477 160.618L162.933 158.546C163.41 157.85 163.852 157.127 164.311 156.42L164.996 155.353L165.337 154.819L165.658 154.273L166.932 152.082C170.729 151.034 174.54 149.719 178.334 148.13C178.397 148.104 178.429 148.031 178.409 147.968C178.389 147.904 178.322 147.875 178.259 147.899C177.322 148.286 176.392 148.658 175.465 149.017C174.54 149.378 173.627 149.728 172.676 150.042C171.737 150.363 170.804 150.67 169.879 150.964C168.952 151.259 168.044 151.548 167.094 151.796C169.567 147.39 171.702 142.796 173.465 138.063C174.228 137.713 174.994 137.352 175.762 136.982L176.34 136.702L176.901 136.413L178.025 135.821C178.082 135.789 178.105 135.717 178.077 135.659C178.048 135.601 177.978 135.578 177.921 135.607C177.201 135.988 176.496 136.364 175.771 136.719C175.037 137.075 174.306 137.418 173.578 137.754L173.991 136.638C174.13 136.266 174.268 135.896 174.384 135.514L175.115 133.246L175.479 132.113C175.592 131.732 175.69 131.348 175.797 130.966L176.427 128.669C176.444 128.608 176.406 128.545 176.346 128.528C176.282 128.513 176.219 128.548 176.204 128.611C175.028 133.284 173.43 137.843 171.535 142.27C171.07 141.117 170.593 139.984 170.107 138.878C169.59 137.756 169.059 136.656 168.524 135.578C168.495 135.523 168.429 135.497 168.371 135.523C168.313 135.546 168.29 135.612 168.316 135.667C168.865 136.777 169.426 137.918 169.94 139.068C170.44 140.213 170.928 141.383 171.408 142.573C169.142 147.815 166.415 152.854 163.265 157.619C162.996 156.344 162.71 155.09 162.413 153.859L162.187 152.941C162.109 152.634 162.02 152.322 161.936 152.016C161.763 151.401 161.589 150.791 161.41 150.19C161.231 149.586 161.052 148.988 160.867 148.395L160.59 147.511C160.497 147.219 160.387 146.919 160.286 146.624C159.87 145.445 159.445 144.287 159.009 143.154C158.989 143.099 158.922 143.064 158.862 143.079C158.804 143.093 158.772 143.151 158.795 143.206C159.237 144.356 159.671 145.529 160.093 146.728C160.312 147.332 160.483 147.919 160.676 148.523C160.864 149.124 161.046 149.73 161.228 150.346C161.407 150.958 161.586 151.577 161.76 152.204L161.89 152.672L162.005 153.137L162.234 154.07C162.534 155.322 162.82 156.596 163.095 157.893C160.332 162.016 157.258 165.932 153.903 169.587C153.854 168.529 153.805 167.492 153.724 166.455C153.632 165.403 153.525 164.366 153.409 163.343L153.227 161.817C153.166 161.314 153.1 160.812 153.013 160.3C152.852 159.283 152.678 158.28 152.496 157.292C152.485 157.231 152.427 157.188 152.366 157.194C152.305 157.2 152.265 157.252 152.277 157.312C152.461 158.318 152.638 159.341 152.802 160.378C152.958 161.407 153.074 162.427 153.195 163.476C153.311 164.519 153.424 165.582 153.507 166.645C153.577 167.694 153.635 168.76 153.681 169.835C151.545 172.187 149.24 174.38 146.882 176.507C146.836 176.55 146.83 176.626 146.873 176.672C146.917 176.721 146.989 176.724 147.035 176.68C148.405 175.418 149.809 174.19 151.103 172.846L152.092 171.858C152.421 171.529 152.753 171.202 153.062 170.852L154.952 168.792C156.244 168.74 157.489 168.61 158.778 168.486L160.714 168.278C161.361 168.203 162.023 168.131 162.658 168.029C163.941 167.836 165.239 167.625 166.553 167.391C167.204 167.269 167.88 167.16 168.521 167.018L170.474 166.588C170.532 166.576 170.578 166.507 170.57 166.44Z" fill="#003E52"/>
<path d="M172.537 111.026C173.451 110.783 174.184 110.249 174.575 109.529C174.97 108.813 175.046 107.917 174.722 106.998C174.118 105.192 172.113 103.953 170.165 104.372C169.2 104.597 168.229 104.834 167.25 105.085C165.611 105.51 164.152 103.791 164.97 102.306L165.065 102.132C165.372 101.549 165.782 101.034 166.221 100.557C166.663 100.081 167.149 99.6531 167.672 99.2803C168.7 98.5233 169.951 98.0379 171.249 97.8125C172.13 97.6593 173.003 97.5178 173.869 97.3848L174.52 97.2866L175.181 97.2028L176.499 97.0468C177.374 96.9457 178.241 96.8561 179.102 96.7723L180.388 96.6538C180.813 96.6163 181.258 96.596 181.688 96.57C182.656 96.5151 183.445 96.099 183.948 95.4576C184.202 95.1397 184.373 94.7496 184.485 94.3451C184.595 93.9377 184.621 93.4898 184.549 93.016C184.254 91.1263 182.503 89.5515 180.527 89.6266C179.527 89.6671 178.498 89.7018 177.51 89.7913C176.675 89.8578 175.967 89.407 175.603 88.7713C175.421 88.4535 175.326 88.0865 175.34 87.7167C175.349 87.5318 175.381 87.344 175.45 87.1677C175.522 86.9914 175.623 86.821 175.762 86.662L177.23 84.9428C177.721 84.3707 178.198 83.7899 178.724 83.2467C179.4 82.5214 179.703 81.5824 179.663 80.6375C179.622 79.6926 179.235 78.7449 178.498 78.0283C177.762 77.3117 176.808 76.9737 175.852 77.0141C174.895 77.0546 173.933 77.4764 173.211 78.2566C172.65 78.8374 172.139 79.4615 171.61 80.0712L170.038 81.9118C169.891 82.0822 169.729 82.2238 169.556 82.3336C169.385 82.4463 169.209 82.533 169.027 82.5879C168.663 82.7006 168.275 82.7035 167.92 82.6052C167.206 82.4116 166.611 81.8193 166.539 80.9178C166.441 79.8285 166.4 78.768 166.354 77.6816C166.264 75.5491 164.513 73.9744 162.332 74.2922C161.786 74.3703 161.269 74.561 160.798 74.8326C160.324 75.1042 159.928 75.4827 159.59 75.9074C158.917 76.7627 158.529 77.8434 158.602 78.9298C158.636 79.4181 158.659 79.8978 158.708 80.389L158.853 81.854C158.951 82.8277 159.058 83.7899 159.174 84.7434L159.35 86.1679L159.442 86.8759L159.552 87.5895C159.702 88.5402 159.858 89.4822 160.02 90.4155C160.263 91.7966 160.225 93.1807 160.014 94.5561C159.899 95.238 159.723 95.9083 159.486 96.5585C159.249 97.2086 158.934 97.8298 158.607 98.4511L158.506 98.636C157.645 100.199 155.345 100.011 154.894 98.2777C154.626 97.2346 154.366 96.1799 154.111 95.1137C153.661 93.042 151.658 91.8024 149.555 92.4872C148.529 92.8426 147.688 93.6141 147.165 94.5647C146.645 95.5154 146.428 96.6307 146.72 97.7027C147.22 99.6126 147.734 101.479 148.286 103.314C148.876 105.166 149.488 106.981 150.118 108.752C150.343 109.405 150.54 110.087 150.664 110.772C150.788 111.457 150.852 112.147 150.849 112.838C150.849 113.528 150.774 114.21 150.658 114.895C150.551 115.583 150.384 116.262 150.147 116.923L150.078 117.123C149.777 117.969 149.052 118.435 148.309 118.495C147.567 118.556 146.804 118.206 146.443 117.392C146.006 116.415 145.576 115.424 145.151 114.421C144.313 112.448 142.126 111.575 140.207 112.627C139.248 113.15 138.543 114.054 138.179 115.077C137.829 116.103 137.867 117.259 138.312 118.255C138.713 119.151 139.121 120.035 139.531 120.908C139.944 121.783 140.401 122.659 140.84 123.514C141.282 124.372 141.73 125.222 142.181 126.06L142.86 127.308L143.579 128.551C144.293 129.767 144.767 131.088 144.989 132.443C145.246 133.807 145.278 135.208 145.027 136.592L144.879 137.413L144.767 138.236C144.622 139.288 144.903 140.302 145.478 141.068C146.053 141.836 146.919 142.359 147.939 142.475C148.959 142.593 149.939 142.29 150.696 141.727C151.453 141.16 151.988 140.328 152.123 139.349L152.227 138.58L152.366 137.814C152.603 136.523 153.088 135.298 153.811 134.24C154.571 133.188 155.539 132.295 156.674 131.634L157.821 130.972L159 130.336C159.786 129.917 160.569 129.51 161.347 129.111C162.13 128.715 162.89 128.325 163.684 127.955C164.482 127.586 165.273 127.23 166.062 126.883C166.949 126.496 167.518 125.823 167.784 125.049C168.062 124.277 167.992 123.39 167.521 122.543C166.576 120.859 164.389 119.986 162.577 120.749C161.659 121.136 160.731 121.535 159.801 121.948C159.023 122.292 158.203 122.113 157.648 121.642C157.093 121.171 156.807 120.405 157.09 119.614L157.157 119.429C157.376 118.81 157.66 118.218 157.995 117.666C158.341 117.117 158.763 116.62 159.22 116.163C159.679 115.71 160.182 115.302 160.722 114.953C161.266 114.603 161.835 114.306 162.473 114.089C164.17 113.488 165.848 112.93 167.504 112.41C169.191 111.902 170.882 111.448 172.537 111.026Z" fill="#CEA152"/>
<path d="M172.084 107.385L172.029 107.232C170.708 107.533 169.356 107.848 168.024 108.206C166.709 108.573 165.377 108.96 164.037 109.373C163.369 109.581 162.679 109.786 162.026 110.018C161.367 110.246 160.705 110.48 160.041 110.72C158.717 111.202 157.356 111.699 156.03 112.243C158.535 106.267 161.592 100.529 165.1 95.0849C166.527 94.7843 167.94 94.5098 169.336 94.2556C170.027 94.1227 170.746 94.0215 171.451 93.9175C172.159 93.8135 172.861 93.7181 173.56 93.6257C176.323 93.2356 179.157 93.0449 181.859 92.9004L181.83 92.7386C180.486 92.808 179.125 92.8975 177.744 93.0073C177.06 93.0651 176.352 93.1171 175.67 93.198C174.988 93.2761 174.3 93.3627 173.609 93.4523C172.231 93.6343 170.818 93.8279 169.423 94.0678C168.041 94.3163 166.643 94.5879 165.23 94.8826C168.564 89.7336 172.324 84.8561 176.47 80.3341L176.343 80.2186C172.191 84.7492 168.426 89.6324 165.086 94.7901C164.794 93.3887 164.516 91.9671 164.256 90.5195C164.011 89.0834 163.814 87.6474 163.615 86.1766C163.517 85.4427 163.424 84.703 163.337 83.9575C163.248 83.212 163.193 82.4839 163.127 81.7384C163.002 80.2532 162.895 78.7449 162.806 77.2164L162.627 77.2453C162.814 80.3399 163.025 83.3132 163.45 86.298C163.548 87.0377 163.65 87.7745 163.756 88.5027C163.866 89.2337 163.967 89.9503 164.106 90.6842C164.372 92.1434 164.652 93.5795 164.947 94.9924C161.433 100.445 158.373 106.195 155.862 112.179C155.319 110.847 154.828 109.506 154.325 108.131C154.077 107.446 153.831 106.753 153.588 106.053C153.343 105.354 153.138 104.663 152.915 103.961C152.479 102.557 152.057 101.13 151.65 99.6762C151.257 98.2315 150.913 96.7839 150.563 95.3016L150.393 95.3622C151.733 101.317 153.611 107.05 155.77 112.407C153.195 118.565 151.164 124.945 149.716 131.46C146.593 126.6 143.883 121.376 141.456 115.791L141.294 115.88C143.758 121.526 146.492 126.797 149.662 131.7C149.52 132.353 149.364 133.003 149.231 133.656L148.876 135.627L148.52 137.598C148.457 137.924 148.413 138.256 148.367 138.589L148.231 139.583L148.402 139.606L148.538 138.615C148.584 138.285 148.624 137.953 148.691 137.626L149.046 135.659L149.402 133.691C149.534 133.038 149.688 132.388 149.832 131.738C154.678 128.603 159.76 125.993 164.779 123.844L164.701 123.702C159.723 125.826 154.695 128.406 149.887 131.501C151.329 124.997 153.36 118.625 155.929 112.477C161.344 110.292 166.686 108.567 172.084 107.385Z" fill="#003E52"/>
<path d="M60.9087 101.037C54.182 104.834 48.6689 110.541 44.9039 117.383C41.1274 124.214 39.1163 132.151 39.0788 140.111C39.047 148.072 40.9916 156.029 44.7074 162.892C48.4117 169.766 53.8757 175.519 60.5706 179.373C64.4425 172.655 67.2337 166.027 69.1032 159.529C70.9669 153.024 71.8944 146.639 71.9118 140.253C71.9464 133.867 71.0767 127.473 69.2679 120.954C67.4591 114.438 64.7257 107.787 60.9087 101.037Z" fill="#4F9E45"/>
<path d="M68.6553 147.3C68.6004 147.254 68.5108 147.257 68.4588 147.309C66.4102 149.338 64.4945 151.447 62.5441 153.646L61.8159 154.475L61.1138 155.31L59.7124 157.006L58.3139 158.734C57.8487 159.315 57.3777 159.904 56.9385 160.494C56.8605 159.997 56.8085 159.5 56.7507 159L56.5831 157.503L56.4155 156.006C56.3606 155.507 56.2971 155.01 56.2653 154.51L56.0283 151.507L55.9128 150.008L55.8434 148.502L55.7076 145.495C55.67 144.492 55.6758 143.486 55.6585 142.484L55.6412 140.978L55.6325 140.224L55.6469 139.473L55.7105 136.462C59.1201 133.249 62.6366 130.258 66.2311 127.496C66.2888 127.45 66.2975 127.369 66.2455 127.314C66.1935 127.259 66.1097 127.25 66.0519 127.294C65.1764 127.97 64.3009 128.66 63.4254 129.366C62.547 130.068 61.6628 130.784 60.8191 131.518C59.9667 132.249 59.1114 132.995 58.2561 133.755C57.4037 134.512 56.534 135.283 55.7163 136.072C55.9128 130.071 56.4675 124.081 57.3806 118.146C58.1868 117.556 58.9901 116.975 59.7933 116.406L60.3943 115.981L61.0127 115.563L62.2465 114.736C62.31 114.696 62.3245 114.612 62.2811 114.551C62.2378 114.491 62.1511 114.473 62.0876 114.517C61.3074 115.037 60.5099 115.565 59.7384 116.106C58.9727 116.649 58.207 117.201 57.4384 117.761L57.6551 116.363C57.7245 115.898 57.7967 115.43 57.892 114.967L58.4179 112.185L58.6809 110.795C58.7762 110.333 58.886 109.873 58.9872 109.414L59.6084 106.651C59.6257 106.576 59.5795 106.501 59.5044 106.484C59.4292 106.466 59.357 106.513 59.3397 106.588C57.9932 112.176 57.031 117.857 56.3664 123.563C55.4533 122.405 54.5432 121.223 53.6359 120.021C52.7604 118.822 51.8935 117.602 51.0267 116.36C50.9833 116.296 50.8967 116.282 50.8331 116.328C50.7724 116.374 50.758 116.467 50.8013 116.531C51.697 117.811 52.5783 119.067 53.5001 120.304C54.4362 121.544 55.3753 122.76 56.3144 123.951C55.5458 130.721 55.2395 137.546 55.3984 144.359C54.2947 143.293 53.1909 142.203 52.0871 141.091L51.2607 140.253L50.4574 139.406L48.8567 137.684L47.2588 135.925C46.7243 135.332 46.1926 134.734 45.6841 134.13C44.6554 132.922 43.6296 131.694 42.6068 130.438C42.5548 130.377 42.4681 130.371 42.4132 130.426C42.3554 130.481 42.3496 130.576 42.4016 130.64C43.4389 131.914 44.482 133.162 45.5251 134.385C46.0366 134.997 46.5971 135.604 47.1317 136.205L48.7556 137.988C50.888 140.34 53.1793 142.596 55.4071 144.752C55.5718 150.672 56.0832 156.584 56.9414 162.447C55.933 161.693 54.913 160.924 53.9104 160.138C52.9251 159.35 51.9397 158.546 50.9516 157.726L49.4693 156.483C48.9723 156.064 48.4782 155.642 48.0014 155.215C47.0392 154.359 46.077 153.49 45.1148 152.603C45.057 152.548 44.9704 152.556 44.9212 152.617C44.8721 152.678 44.8779 152.773 44.9386 152.825C45.9181 153.729 46.8976 154.614 47.8772 155.483C48.8654 156.353 49.8882 157.203 50.888 158.038C51.8964 158.873 52.8933 159.69 53.9075 160.491C54.939 161.288 55.9706 162.069 56.9992 162.834C57.5338 166.588 58.2764 170.309 59.097 174.011C59.1143 174.086 59.1865 174.132 59.2617 174.115C59.3368 174.097 59.383 174.022 59.3686 173.95C58.9063 171.783 58.4064 169.627 58.0452 167.44L57.7505 165.805C57.6493 165.261 57.5511 164.715 57.476 164.166L56.9963 160.878C57.8863 159.679 58.8571 158.491 59.7991 157.33L61.2207 155.605C61.6975 155.036 62.1627 154.472 62.6626 153.914C63.6479 152.796 64.6361 151.701 65.6271 150.629C66.127 150.092 66.6038 149.563 67.1239 149.037L68.6611 147.477C68.716 147.428 68.7131 147.347 68.6553 147.3Z" fill="#003E52"/>
<path d="M119.224 116.817C117.386 116.559 115.517 116.432 113.627 116.426C112.674 116.412 111.758 116.481 110.821 116.562C109.888 116.646 108.952 116.759 108.013 116.903C104.288 117.507 100.613 118.677 97.1398 120.365C90.182 123.725 84.0332 129.172 79.6441 135.8C75.2579 142.432 72.6545 150.222 72.2817 157.939C72.0881 161.797 72.4493 165.637 73.3479 169.301C73.582 170.22 73.8449 171.127 74.131 172.017C74.4228 172.91 74.7175 173.779 75.1047 174.652C75.8502 176.389 76.6997 178.059 77.6532 179.651C84.0679 175.713 89.5607 171.575 94.2763 167.243C98.992 162.904 102.922 158.35 106.201 153.368C109.501 148.401 112.159 143.001 114.306 136.965C116.453 130.934 118.109 124.26 119.224 116.817Z" fill="#4F9E45"/>
<path d="M99.9686 157.22C99.9455 157.153 99.8733 157.113 99.8039 157.127C97.0878 157.676 94.4613 158.399 91.7394 159.196L90.7166 159.503L89.7197 159.832C89.0551 160.055 88.3848 160.283 87.7115 160.52C87.0383 160.754 86.365 160.996 85.686 161.245C85.0099 161.493 84.3193 161.745 83.6634 162.019C83.8396 161.566 84.0506 161.126 84.2528 160.684L84.8654 159.358L85.478 158.032C85.6831 157.59 85.8796 157.145 86.1108 156.717L87.4515 154.122L88.1247 152.828L88.85 151.562L90.3005 149.028C90.419 148.814 90.5432 148.606 90.6761 148.404L91.0662 147.786L91.8464 146.552L92.6265 145.318L93.0166 144.7L93.4298 144.099L95.0912 141.698C99.5728 140.938 104.005 140.484 108.354 140.328C108.423 140.325 108.472 140.265 108.464 140.195C108.455 140.126 108.389 140.068 108.319 140.071C107.259 140.114 106.19 140.172 105.109 140.241C104.028 140.311 102.927 140.386 101.861 140.51C100.783 140.626 99.697 140.756 98.599 140.897C97.5039 141.042 96.3828 141.186 95.305 141.386C98.6944 136.653 102.451 132.183 106.536 128.033C107.504 128.028 108.464 128.031 109.414 128.042L110.125 128.054L110.847 128.083L112.284 128.152C112.356 128.155 112.416 128.1 112.416 128.028C112.416 127.955 112.359 127.895 112.286 127.889C111.382 127.843 110.455 127.794 109.541 127.773C108.637 127.762 107.721 127.756 106.799 127.762L107.764 126.785L108.247 126.297C108.409 126.135 108.579 125.985 108.747 125.826L110.761 123.959L111.766 123.026C112.11 122.723 112.463 122.434 112.809 122.136L114.904 120.362C114.962 120.313 114.968 120.229 114.922 120.171C114.875 120.113 114.792 120.108 114.734 120.154C110.405 123.673 106.401 127.58 102.685 131.735C102.61 130.307 102.555 128.857 102.517 127.389C102.511 125.947 102.529 124.491 102.563 123.012C102.566 122.936 102.506 122.876 102.43 122.879C102.355 122.882 102.292 122.945 102.289 123.02C102.257 124.549 102.225 126.04 102.254 127.539C102.295 129.053 102.352 130.544 102.433 132.015C98.0443 136.959 94.0944 142.293 90.6472 147.936C90.3092 146.488 89.9884 145.018 89.6821 143.521L89.4568 142.394C89.3845 142.018 89.3267 141.649 89.2632 141.273C89.1389 140.525 89.0176 139.77 88.902 139.011C88.7864 138.251 88.6737 137.485 88.5668 136.71L88.4079 135.546C88.3559 135.156 88.3212 134.777 88.2808 134.39C88.1218 132.847 87.9802 131.284 87.8618 129.695C87.856 129.617 87.7895 129.565 87.7115 129.579C87.6335 129.594 87.5786 129.669 87.5844 129.747C87.7057 131.359 87.8502 132.948 88.012 134.512L88.0727 135.098L88.1507 135.691L88.3125 136.869C88.4223 137.652 88.535 138.43 88.6535 139.201C88.772 139.973 88.8962 140.738 89.0233 141.495L89.1187 142.062L89.2314 142.637L89.4625 143.778C89.7746 145.295 90.1011 146.786 90.4479 148.251C87.4804 153.172 84.8856 158.318 82.707 163.635C82.2389 162.508 81.7679 161.358 81.3258 160.196C80.9068 159.046 80.4936 157.879 80.092 156.691L79.4939 154.897C79.2945 154.293 79.1009 153.686 78.9304 153.088C78.5808 151.883 78.2398 150.658 77.9076 149.418C77.8873 149.343 77.8122 149.303 77.74 149.332C77.6677 149.358 77.6244 149.441 77.6446 149.517C77.9827 150.779 78.3294 152.028 78.6848 153.253C79.0518 154.486 79.4708 155.72 79.8753 156.925C80.2885 158.133 80.6988 159.318 81.1409 160.494C81.6032 161.678 82.0771 162.843 82.5567 163.99L82.0337 165.267C81.947 165.481 81.8575 165.692 81.7737 165.906L81.5396 166.556L80.6063 169.151C80.4532 169.584 80.2914 170.014 80.144 170.451L79.7337 171.768L78.916 174.404C78.8929 174.476 78.9333 174.548 79.0056 174.568C79.0778 174.589 79.1529 174.548 79.1731 174.479C79.8175 172.43 80.4098 170.364 81.1756 168.359L81.7217 166.845L81.9933 166.088C82.0828 165.833 82.1926 165.591 82.2938 165.339L83.516 162.36C84.8452 161.8 86.2581 161.306 87.6162 160.823C88.2981 160.583 88.98 160.349 89.6561 160.121C90.3352 159.896 90.9968 159.667 91.6961 159.468C93.0773 159.061 94.444 158.676 95.7962 158.318L96.8076 158.055C97.1427 157.968 97.4808 157.885 97.8275 157.809C98.5152 157.653 99.2 157.503 99.882 157.362C99.9542 157.353 99.9918 157.286 99.9686 157.22Z" fill="#003E52"/>
<path d="M138.497 119.377C135.515 124.485 133.114 129.23 131.235 133.752C129.36 138.279 128.031 142.605 127.225 147.029C126.393 151.447 126.083 155.96 126.211 160.861C126.341 165.755 126.881 171.046 127.835 176.883C129.265 176.631 130.695 176.264 132.114 175.793C132.836 175.565 133.498 175.276 134.177 174.973C134.853 174.667 135.523 174.337 136.191 173.982C138.82 172.543 141.262 170.65 143.386 168.391C143.654 168.11 143.923 167.824 144.186 167.535C144.434 167.241 144.68 166.937 144.92 166.634C145.402 166.024 145.876 165.397 146.336 164.753C146.561 164.429 146.801 164.108 147.006 163.773C147.211 163.438 147.414 163.1 147.613 162.759C148.009 162.077 148.393 161.378 148.76 160.67C149.144 159.965 149.436 159.228 149.742 158.491C150.043 157.752 150.329 157.003 150.598 156.246C150.739 155.871 150.84 155.483 150.953 155.096C151.06 154.709 151.164 154.322 151.265 153.935C151.465 153.157 151.647 152.371 151.811 151.585C151.938 150.791 152.051 149.996 152.144 149.196C152.19 148.797 152.233 148.398 152.268 148C152.303 147.601 152.349 147.202 152.349 146.8C152.369 145.997 152.372 145.197 152.355 144.396C152.331 143.596 152.323 142.804 152.219 142.01C152.129 141.215 152.022 140.429 151.895 139.649C151.832 139.259 151.765 138.872 151.693 138.485C151.621 138.097 151.514 137.713 151.418 137.332C151.222 136.566 151.005 135.812 150.771 135.069C150.656 134.697 150.534 134.33 150.41 133.963C150.268 133.599 150.121 133.234 149.968 132.876C148.795 130.007 147.194 127.363 145.255 125.077C144.761 124.508 144.252 123.956 143.729 123.43C143.204 122.905 142.689 122.396 142.097 121.925C140.944 120.977 139.742 120.125 138.497 119.377Z" fill="#4F9E45"/>
<path d="M147.723 157.653C147.697 157.599 147.63 157.581 147.578 157.613C145.587 158.965 143.458 160.164 141.412 161.268L140.643 161.678L139.846 162.066C139.317 162.32 138.788 162.571 138.262 162.811C137.737 163.051 137.214 163.288 136.693 163.519C136.173 163.747 135.662 163.973 135.119 164.178C135.286 163.831 135.419 163.473 135.558 163.117L135.977 162.045L136.396 160.973C136.532 160.615 136.682 160.263 136.795 159.896L137.511 157.711L137.867 156.619L138.167 155.509L138.765 153.29C138.817 153.105 138.863 152.92 138.898 152.733L139.017 152.169L139.256 151.045L139.496 149.921L139.615 149.358L139.707 148.791L140.065 146.52C142.926 144.379 145.688 141.946 148.312 139.233C148.355 139.19 148.358 139.115 148.321 139.068C148.283 139.022 148.214 139.019 148.173 139.063C147.523 139.727 146.87 140.374 146.22 141.007C145.57 141.64 144.928 142.255 144.229 142.851C143.547 143.446 142.862 144.027 142.183 144.59C141.502 145.154 140.837 145.703 140.112 146.226C140.739 141.683 140.927 137.083 140.661 132.506C141.166 131.937 141.669 131.356 142.172 130.761L142.548 130.313L142.9 129.863L143.605 128.947C143.64 128.9 143.634 128.831 143.588 128.791C143.542 128.753 143.475 128.759 143.44 128.808C142.987 129.397 142.55 129.972 142.082 130.542C141.603 131.111 141.123 131.666 140.64 132.212L140.577 131.134L140.545 130.594C140.534 130.414 140.508 130.235 140.487 130.056L140.239 127.909L140.115 126.834C140.063 126.479 139.993 126.124 139.935 125.768L139.566 123.639C139.557 123.581 139.502 123.543 139.444 123.555C139.386 123.566 139.349 123.621 139.358 123.679C140.219 127.964 140.58 132.339 140.568 136.705C139.768 135.907 138.967 135.139 138.17 134.396C137.332 133.656 136.488 132.943 135.65 132.258C135.607 132.223 135.541 132.226 135.503 132.267C135.465 132.307 135.468 132.368 135.512 132.405C136.37 133.11 137.257 133.847 138.098 134.613C138.921 135.379 139.748 136.176 140.571 137.002C140.536 142.18 139.924 147.353 138.754 152.398C138.118 151.398 137.477 150.427 136.826 149.488L136.341 148.789C136.173 148.557 135.997 148.323 135.824 148.092C135.477 147.633 135.127 147.179 134.778 146.734C134.428 146.289 134.076 145.85 133.726 145.419L133.197 144.778C133.021 144.567 132.824 144.353 132.642 144.145C131.894 143.307 131.14 142.498 130.389 141.718C130.351 141.68 130.285 141.675 130.241 141.706C130.198 141.738 130.189 141.793 130.227 141.834C130.99 142.625 131.752 143.446 132.515 144.298L132.801 144.619L133.07 144.94L133.605 145.593C133.963 146.032 134.318 146.477 134.674 146.931C135.029 147.384 135.385 147.844 135.737 148.312L136.003 148.664L136.251 149.017L136.745 149.731C137.401 150.69 138.054 151.678 138.699 152.695C137.65 157.073 136.185 161.349 134.321 165.446C133.98 164.548 133.645 163.672 133.278 162.805C132.891 161.93 132.495 161.075 132.096 160.237L131.49 158.994C131.287 158.587 131.082 158.182 130.851 157.772C130.403 156.96 129.949 156.165 129.49 155.391C129.461 155.345 129.398 155.325 129.348 155.345C129.299 155.368 129.279 155.423 129.308 155.469C129.776 156.258 130.238 157.067 130.695 157.896C131.14 158.72 131.539 159.549 131.952 160.404C132.356 161.257 132.767 162.135 133.148 163.022C133.506 163.9 133.859 164.799 134.2 165.715L133.752 166.697C133.677 166.862 133.605 167.027 133.527 167.189L133.275 167.668L132.273 169.584C132.105 169.902 131.943 170.226 131.767 170.54L131.212 171.468L130.103 173.323C130.074 173.372 130.088 173.439 130.137 173.47C130.186 173.502 130.25 173.485 130.282 173.436C131.143 171.979 132.05 170.552 132.798 169.032L133.388 167.908L133.683 167.348C133.784 167.16 133.862 166.963 133.951 166.773L135 164.464C136.107 164.054 137.13 163.577 138.205 163.091C138.739 162.846 139.274 162.594 139.811 162.337C140.346 162.077 140.901 161.817 141.412 161.534C142.455 160.976 143.507 160.39 144.564 159.777L145.359 159.312C145.628 159.156 145.891 158.997 146.142 158.832C146.653 158.506 147.168 158.174 147.682 157.833C147.728 157.783 147.749 157.708 147.723 157.653Z" fill="#003E52"/>
<path d="M82.3342 117.36C79.1731 117.995 76.1161 119.186 73.293 120.876C70.47 122.564 67.884 124.745 65.6504 127.311C63.4169 129.877 61.5416 132.824 60.1084 136.011C58.6752 139.195 57.6841 142.617 57.1843 146.107C56.6902 149.6 56.6844 153.16 57.1727 156.619C57.6581 160.078 58.6377 163.432 60.0622 166.518C61.4867 169.607 63.362 172.424 65.6013 174.831C67.8406 177.241 70.444 179.238 73.2988 180.732C76.2923 174.996 78.6819 169.691 80.5196 164.66C82.3544 159.621 83.6142 154.836 84.299 149.97C85.0012 145.107 85.1283 140.161 84.7729 134.809C84.4204 129.464 83.6056 123.705 82.3342 117.36Z" fill="#4F9E45"/>
<path d="M80.9242 155.079C80.8809 155.038 80.8086 155.033 80.7624 155.07C77.0899 157.89 73.5619 161.204 70.3574 164.995C70.0685 161.661 70.0396 158.306 70.2014 154.963C70.3632 151.62 70.7591 148.289 71.3688 144.997C74.5905 142.781 77.9018 140.889 81.2565 139.328C81.3114 139.302 81.3287 139.242 81.297 139.19C81.2652 139.138 81.1958 139.117 81.1409 139.143C77.8469 140.672 74.5905 142.521 71.4265 144.677C72.3569 139.759 73.7612 134.928 75.6452 130.287C77.1881 129.646 78.7138 129.056 80.2596 128.536C80.3174 128.516 80.3463 128.452 80.3232 128.395C80.3001 128.337 80.2336 128.305 80.1758 128.325C79.4448 128.577 78.7022 128.834 77.9683 129.111C77.2401 129.391 76.5062 129.68 75.7665 129.984C76.9656 127.074 78.3497 124.242 79.9129 121.509C79.9447 121.454 79.9245 121.382 79.8696 121.35C79.8147 121.318 79.7453 121.339 79.7135 121.393C77.3182 125.551 75.3735 129.966 73.8392 134.512C73.559 133.957 73.2931 133.399 73.036 132.836C72.7759 132.272 72.5188 131.7 72.2616 131.122C72.016 130.547 71.7762 129.966 71.5392 129.377C71.3023 128.788 71.0654 128.192 70.8486 127.597C70.8255 127.536 70.7591 127.508 70.6984 127.534C70.6377 127.56 70.6059 127.632 70.629 127.695C70.8515 128.311 71.1058 128.929 71.3456 129.533C71.5941 130.14 71.8311 130.735 72.0998 131.333C72.6286 132.524 73.1544 133.682 73.7381 134.824C71.9495 140.224 70.7735 145.827 70.2274 151.49C69.82 150.993 69.4155 150.487 69.0109 149.976C68.6151 149.465 68.225 148.944 67.8349 148.419C67.0432 147.361 66.3122 146.28 65.5609 145.165C64.1075 142.94 62.7061 140.594 61.4434 138.144C61.4116 138.083 61.3423 138.066 61.2845 138.106C61.2296 138.147 61.2094 138.227 61.2412 138.288C63.8272 143.27 66.8641 147.797 70.1956 151.82C69.7478 156.743 69.7709 161.71 70.2765 166.631C67.0114 163.981 63.8908 160.956 60.9696 157.587C60.9262 157.535 60.854 157.535 60.8077 157.584C60.7615 157.633 60.7615 157.717 60.8049 157.766C63.7868 161.196 66.9739 164.27 70.317 166.955C70.6637 170.101 71.2098 173.225 71.9582 176.302C71.9726 176.366 72.0362 176.403 72.0969 176.386C72.1576 176.371 72.198 176.308 72.1836 176.247L71.8657 174.901C71.7617 174.45 71.6779 173.996 71.5826 173.545C71.3832 172.644 71.2416 171.731 71.0769 170.824C70.7937 169 70.5395 167.168 70.395 165.328C73.6312 161.465 77.1997 158.09 80.9271 155.226C80.9647 155.183 80.9676 155.119 80.9242 155.079Z" fill="#003E52"/>
<path d="M110.177 126.369C105.655 128.681 101.855 132.105 99.0324 136.24C96.2065 140.369 94.3601 145.2 93.6493 150.199C92.9414 155.197 93.3719 160.352 94.938 165.102C96.5012 169.858 99.2 174.204 102.899 177.683C106.386 173.973 109.094 170.006 111.096 165.906C113.098 161.803 114.396 157.564 115.005 153.227C115.624 148.893 115.557 144.46 114.774 139.961C113.991 135.465 112.494 130.9 110.177 126.369Z" fill="#4F9E45"/>
<path d="M112.191 157.671C112.159 157.633 112.101 157.627 112.064 157.656C110.532 158.806 109.05 160.002 107.551 161.233C106.794 161.849 106.074 162.476 105.334 163.112C104.6 163.747 103.852 164.392 103.133 165.047C103.407 159.777 103.976 154.524 104.791 149.309C107.282 147.5 109.807 145.789 112.356 144.18C112.396 144.154 112.408 144.099 112.379 144.058C112.35 144.018 112.295 144.006 112.252 144.032C111.015 144.824 109.747 145.633 108.519 146.471C107.293 147.309 106.042 148.167 104.826 149.054C105.453 145.156 106.23 141.284 107.155 137.447C108.273 136.762 109.385 136.095 110.524 135.451C110.567 135.425 110.582 135.373 110.556 135.329C110.53 135.286 110.475 135.272 110.431 135.298C109.894 135.607 109.348 135.916 108.813 136.234L107.215 137.199C107.366 136.598 107.499 135.991 107.66 135.393L108.137 133.596L108.374 132.697L108.631 131.801L109.146 130.013C109.16 129.964 109.131 129.914 109.085 129.9C109.039 129.886 108.987 129.914 108.972 129.961C107.892 133.578 106.967 137.242 106.169 140.932C105.646 140.114 105.123 139.291 104.603 138.456C104.098 137.624 103.595 136.783 103.092 135.933C103.066 135.89 103.011 135.875 102.968 135.901C102.925 135.927 102.91 135.985 102.936 136.029C103.456 136.904 103.968 137.771 104.499 138.629C105.037 139.49 105.574 140.34 106.114 141.18C105.175 145.558 104.43 149.976 103.881 154.417C102.647 152.819 101.405 151.181 100.223 149.511C99.6305 148.676 99.0208 147.826 98.4458 146.974C97.8679 146.121 97.29 145.257 96.7179 144.382C96.689 144.339 96.6341 144.327 96.5908 144.359C96.5503 144.391 96.5388 144.448 96.5677 144.492C97.1514 145.379 97.735 146.254 98.3216 147.121C98.911 147.988 99.5236 148.849 100.128 149.696C101.324 151.389 102.595 153.053 103.846 154.671C103.381 158.535 103.06 162.415 102.89 166.301C102.332 165.692 101.772 165.073 101.217 164.449L99.5814 162.557C98.4834 161.282 97.4259 159.982 96.3683 158.656C96.3365 158.615 96.2787 158.61 96.2412 158.644C96.2036 158.679 96.1978 158.737 96.2296 158.777L97.8477 160.783C98.3909 161.444 98.9515 162.1 99.5034 162.747C100.058 163.395 100.61 164.036 101.171 164.672L102.875 166.556C102.76 169.044 102.731 171.534 102.737 174.025C102.737 174.074 102.777 174.115 102.826 174.115C102.875 174.115 102.916 174.074 102.916 174.022C102.919 172.566 102.907 171.11 102.953 169.656C102.974 168.928 102.977 168.2 103.011 167.475L103.107 165.293C103.832 164.626 104.592 163.97 105.337 163.325C106.088 162.678 106.825 162.042 107.585 161.415C109.114 160.164 110.61 158.951 112.168 157.78C112.217 157.763 112.223 157.708 112.191 157.671Z" fill="#003E52"/>
<path d="M34.0511 141.64C33.0167 145.232 32.5717 148.728 32.6208 152.068C32.6728 155.411 33.2218 158.607 34.2447 161.641C35.2647 164.675 36.7586 167.553 38.7407 170.246C40.7229 172.936 43.1905 175.45 46.1869 177.686C48.4175 174.698 49.8074 171.202 50.3102 167.553C50.8187 163.906 50.4431 160.112 49.2555 156.587C48.0679 153.062 46.0742 149.814 43.4621 147.217C40.8558 144.613 37.6341 142.669 34.0511 141.64Z" fill="#4F9E45"/>
<path d="M48.877 160.884C48.8452 160.864 48.8047 160.878 48.7874 160.91C47.4611 163.551 46.0193 166.105 44.5168 168.553C43.6268 164.776 42.5173 161.051 41.2228 157.396C42.1937 155.353 43.1067 153.253 43.9562 151.1C43.9707 151.065 43.9533 151.025 43.9187 151.008C43.884 150.99 43.8464 151.008 43.832 151.042C42.9998 153.152 42.107 155.212 41.1592 157.217C40.1797 154.487 39.0904 151.794 37.8941 149.153C38.2322 148.251 38.5703 147.335 38.8765 146.419C38.8881 146.385 38.8708 146.344 38.8361 146.333C38.8014 146.321 38.7639 146.338 38.7523 146.373L38.2987 147.682L37.819 148.982C37.0706 147.318 36.2616 145.685 35.4265 144.061C35.4092 144.03 35.3687 144.015 35.3369 144.033C35.3052 144.05 35.2907 144.09 35.3081 144.122C36.591 146.575 37.7612 149.089 38.8419 151.638C38.1802 151.372 37.5214 151.112 36.8626 150.857C36.1951 150.609 35.5305 150.366 34.8717 150.129C34.8371 150.118 34.7995 150.135 34.7851 150.17C34.7706 150.204 34.7879 150.242 34.8226 150.254C35.5016 150.496 36.1922 150.745 36.8741 151.005C37.5503 151.268 38.2322 151.536 38.9141 151.811C40.1884 154.836 41.3239 157.919 42.3121 161.051C40.983 160.37 39.674 159.711 38.3362 159.098C37.0157 158.477 35.6721 157.899 34.3401 157.35C34.3083 157.336 34.2678 157.353 34.2534 157.385C34.239 157.417 34.2505 157.454 34.2852 157.469C34.9584 157.749 35.6375 158.035 36.3165 158.33C36.9955 158.624 37.6601 158.934 38.3362 159.246C39.6972 159.87 41.0176 160.54 42.3699 161.234C43.2223 163.958 43.9649 166.715 44.5948 169.497C44.0805 169.174 43.569 168.856 43.0547 168.541L41.4944 167.622C40.4658 167.018 39.4111 166.443 38.3651 165.886C38.3333 165.868 38.2929 165.88 38.2755 165.912C38.2582 165.943 38.2669 165.981 38.2987 165.998L39.8994 166.865C40.4311 167.16 40.9541 167.463 41.4828 167.769C42.0087 168.076 42.5433 168.388 43.0692 168.706L44.6352 169.679C45.0427 171.459 45.3865 173.254 45.7015 175.054C45.7072 175.091 45.7419 175.115 45.7795 175.109C45.817 175.103 45.8402 175.068 45.8344 175.031C45.6437 173.979 45.4645 172.921 45.242 171.875C45.1322 171.352 45.0369 170.827 44.9155 170.304L44.5601 168.737C44.9531 168.113 45.3201 167.489 45.6957 166.856C46.0655 166.224 46.4469 165.579 46.8052 164.935C47.5189 163.646 48.2413 162.32 48.9088 160.982C48.9232 160.945 48.9088 160.901 48.877 160.884Z" fill="#003E52"/>
<path d="M119.406 90.1207H112.211H105.649H98.6278H93.447L84.062 166.72H95.068L106.412 101.655H108.357L107.132 166.72H118.137L122.55 90.1207H119.406Z" fill="#3E4870"/>
<path d="M119.406 90.1207H112.211H105.649H98.6278H93.447L84.062 166.72H95.068L106.412 101.655H108.357L107.132 166.72H118.137L122.55 90.1207H119.406Z" fill="#6CA8BC"/>
<path d="M94.2071 166.72H84.8972L84.1778 168.211C83.6172 169.37 82.6492 170.286 81.4617 170.78C80.2308 171.292 79.2541 172.251 78.708 173.447H93.5656L94.2071 166.72Z" fill="#422C4F"/>
<path d="M78.7079 173.444C78.5981 173.687 78.497 173.935 78.4219 174.195L78.0347 175.559H93.3604L93.5627 173.444H78.7079Z" fill="#454F6B"/>
<path d="M121.588 170.246C119.684 169.766 118.057 168.532 117.083 166.824L117.025 166.72H107.935L107.077 173.444H125.96C124.98 171.864 123.42 170.708 121.588 170.246Z" fill="#422C4F"/>
<path d="M125.959 173.444H107.077L106.808 175.559H126.93L126.517 174.536C126.361 174.155 126.173 173.791 125.959 173.444Z" fill="#454F6B"/>
<path d="M119.406 90.1207H112.211H105.649H98.6249H93.4441L90.7627 112.011C94.4583 114.675 99.0352 116.239 103.826 116.467L106.409 101.653H108.354L108.073 116.499H110.538C114.277 116.499 117.921 115.678 121.163 114.158L122.547 90.1207H119.406Z" fill="#5195A8"/>
<path d="M97.9402 140.964C97.1283 140.591 96.2325 140.129 95.3484 139.542C94.4642 138.958 93.5887 138.256 92.7998 137.467C92.011 136.676 91.3118 135.8 90.7281 134.913C90.1444 134.026 89.6821 133.13 89.3123 132.318C89.4076 133.205 89.685 134.223 90.1733 135.228C90.6588 136.234 91.3551 137.222 92.1959 138.068C93.0397 138.912 94.0279 139.611 95.0305 140.1C96.036 140.588 97.0531 140.865 97.9402 140.964Z" fill="#5195A8"/>
<path d="M98.5845 136.08C97.8765 136.228 97.0617 136.473 96.244 136.696C95.4263 136.921 94.6028 137.123 93.918 137.36C94.5854 137.635 95.5505 137.681 96.4463 137.43C97.3449 137.187 98.151 136.658 98.5845 136.08Z" fill="#5195A8"/>
<path d="M117.707 143.376C116.881 143.082 115.968 142.706 115.049 142.212C114.13 141.721 113.214 141.114 112.367 140.415C111.524 139.715 110.755 138.927 110.102 138.115C109.446 137.306 108.906 136.476 108.464 135.722C108.646 136.577 109.018 137.543 109.593 138.476C110.166 139.409 110.937 140.308 111.839 141.056C112.74 141.802 113.769 142.394 114.792 142.781C115.817 143.171 116.834 143.353 117.707 143.376Z" fill="#5195A8"/>
<path d="M112.639 139.155C114.032 138.612 115.687 137.418 116.895 135.835C118.12 134.266 118.857 132.359 119.028 130.877C118.395 132.232 117.493 133.908 116.332 135.401C115.182 136.904 113.789 138.198 112.639 139.155Z" fill="#5195A8"/>
<path d="M90.8842 54.6987C88.6448 55.1293 86.8534 56.8138 86.287 59.0214L80.7046 80.7068L92.6034 80.8947L90.8842 54.6987Z" fill="#6CA8BC"/>
<path d="M92.6033 80.8945L91.1181 58.2324C90.1357 61.7951 89.5087 65.4445 89.2515 69.1286L88.4309 80.8281L92.6033 80.8945Z" fill="#5195A8"/>
<path d="M82.4613 80.7357L81.5107 84.5122L79.2627 105.952H84.0621L87.3821 84.7694L88.4281 80.8281L82.4613 80.7357Z" fill="#F0BF9C"/>
<path d="M86.7261 109.703C86.6539 108.714 86.1916 107.793 85.4403 107.145L84.0621 105.955L84.8538 103.187H79.3782L79.2626 105.955L78.5143 109.503C78.2398 110.809 78.8581 112.138 80.0341 112.768L80.6005 113.072C81.2419 113.416 81.736 113.982 81.9932 114.664C82.1434 115.068 82.5306 115.334 82.9612 115.334C83.4697 115.334 83.9031 114.964 83.984 114.464L84.7526 109.674L85.4085 111.691C85.6281 112.367 86.2465 112.838 86.9573 112.872L86.7261 109.703Z" fill="#FDF7E7"/>
<path d="M82.4612 80.7357L88.428 80.8281L87.8934 82.8421L82.3601 81.1402L82.4612 80.7357Z" fill="#422C4F"/>
<path d="M124.705 54.6988C126.945 55.1294 128.736 56.8139 129.302 59.0215L134.885 80.7069L122.986 80.8947L124.705 54.6988Z" fill="#6CA8BC"/>
<path d="M122.986 80.8946L124.471 58.2325C125.454 61.7952 126.081 65.4446 126.338 69.1287L127.158 80.8281L122.986 80.8946Z" fill="#5195A8"/>
<path d="M133.128 80.7357L134.079 84.5122L136.327 105.952H131.527L128.207 84.7694L127.161 80.8281L133.128 80.7357Z" fill="#F0BF9C"/>
<path d="M128.863 109.703C128.935 108.714 129.398 107.793 130.149 107.145L131.527 105.955L130.736 103.187H136.211L136.327 105.955L137.075 109.503C137.35 110.809 136.731 112.138 135.555 112.768L134.989 113.072C134.347 113.416 133.853 113.982 133.596 114.664C133.446 115.068 133.059 115.334 132.628 115.334C132.12 115.334 131.686 114.964 131.605 114.464L130.837 109.674L130.181 111.691C129.961 112.367 129.343 112.838 128.632 112.872L128.863 109.703Z" fill="#FDF7E7"/>
<path d="M133.128 80.7357L127.161 80.8281L127.696 82.8421L133.229 81.1402L133.128 80.7357Z" fill="#422C4F"/>
<path d="M122.986 80.8946L124.702 54.6987L111.073 51.7313L107.793 51.4857L104.514 51.7313L90.884 54.6987L92.6003 80.8946L88.425 106.299L89.6935 107.177C93.8515 110.584 99.3415 112.479 105.045 112.479H107.793H110.541C116.245 112.479 121.735 110.584 125.893 107.177L122.986 80.8946Z" fill="#6CA8BC"/>
<path d="M119.169 100.638C118.371 101.271 117.343 101.655 116.233 101.829C115.124 102.002 113.928 101.999 112.705 101.921C110.261 101.757 107.704 101.161 105.274 100.231C102.835 99.3121 100.526 98.0581 98.4342 96.7405C96.3422 95.42 94.4612 94.0388 92.8286 92.8339C94.2502 94.2758 95.9955 95.8534 98.0325 97.3299C100.07 98.8007 102.407 100.167 104.933 101.118C107.446 102.083 110.139 102.623 112.679 102.632C113.945 102.635 115.182 102.534 116.32 102.233C117.458 101.939 118.481 101.393 119.169 100.638Z" fill="#5195A8"/>
<path d="M120.406 93.2326C119.495 93.9492 118.409 94.7178 117.181 95.4113C115.956 96.1076 114.589 96.7289 113.176 97.2114C111.76 97.6882 110.298 98.0262 108.903 98.2169C107.507 98.4134 106.175 98.4654 105.016 98.4481C106.158 98.6446 107.51 98.7313 108.946 98.6215C110.382 98.5146 111.899 98.2169 113.352 97.7257C114.806 97.2316 116.193 96.5468 117.395 95.758C118.6 94.9721 119.62 94.0821 120.406 93.2326Z" fill="#5195A8"/>
<path d="M97.501 73.4629C99.3416 73.6507 101.509 73.6276 103.786 73.2664C106.06 72.911 108.435 72.2175 110.677 71.2178C112.916 70.2122 115.014 68.9004 116.794 67.4384C118.58 65.9821 120.039 64.3784 121.125 62.8817C119.816 64.1935 118.23 65.6093 116.398 66.9211C114.569 68.2359 112.5 69.4436 110.322 70.4232C108.143 71.3969 105.863 72.1366 103.664 72.6249C101.462 73.119 99.3502 73.3589 97.501 73.4629Z" fill="#5195A8"/>
<path d="M112.442 68.3052C111.003 68.4208 109.351 68.4555 107.602 68.2994C105.857 68.1463 104.022 67.8053 102.243 67.2679C100.465 66.7276 98.7492 65.9936 97.212 65.1499C95.6719 64.312 94.3138 63.3642 93.1812 62.4685C94.1578 63.5289 95.4349 64.6298 96.9519 65.5891C98.466 66.5484 100.214 67.3604 102.043 67.9151C103.872 68.467 105.779 68.7646 107.571 68.8051C109.368 68.8542 111.041 68.6462 112.442 68.3052Z" fill="#5195A8"/>
<path d="M120.079 80.8975C118.531 81.4522 116.716 81.9839 114.745 82.3335C112.778 82.6889 110.654 82.8623 108.536 82.8074C106.418 82.7467 104.309 82.4607 102.361 82.0012C100.411 81.5447 98.6307 80.9177 97.1138 80.282C98.5123 81.1489 100.252 81.9695 102.211 82.5618C104.167 83.157 106.337 83.5211 108.516 83.5818C110.697 83.6367 112.882 83.3911 114.867 82.9028C116.855 82.4144 118.637 81.6863 120.079 80.8975Z" fill="#5195A8"/>
<path d="M105.305 51.2516C102.656 51.9017 100.705 54.066 100.33 56.7676L100.234 57.4495C99.8559 60.1945 99.8212 62.9829 100.133 65.7394L100.619 70.0187L101.306 69.9407L100.821 65.6614C100.515 62.9655 100.549 60.235 100.919 57.5449L101.015 56.863C101.35 54.4445 103.098 52.5056 105.47 51.922L105.895 51.8179L105.73 51.1476L105.305 51.2516Z" fill="#495375"/>
<path d="M113.948 57.4119L113.763 55.2824C113.587 53.2568 112.136 51.6156 110.148 51.1909L109.94 51.1475L109.796 51.8237L110.004 51.867C111.691 52.2253 112.925 53.6209 113.075 55.3401L113.26 57.4581C111.394 57.7529 109.957 59.3681 109.957 61.3185V62.4714H110.648V61.3185C110.648 59.5414 112.093 58.0967 113.87 58.0967C115.647 58.0967 117.092 59.5414 117.092 61.3185V62.4714H117.782V61.3185C117.779 59.1889 116.069 57.4524 113.948 57.4119Z" fill="#495375"/>
<path d="M103.39 71.3074C103.39 72.5614 102.373 73.5785 101.119 73.5785C99.8645 73.5785 98.8474 72.5614 98.8474 71.3074C98.8474 70.0534 99.8645 69.0363 101.119 69.0363C102.373 69.0363 103.39 70.0534 103.39 71.3074Z" fill="#E4E4E0"/>
<path d="M102.815 71.3074C102.815 72.2436 102.055 73.0035 101.118 73.0035C100.182 73.0035 99.4224 72.2436 99.4224 71.3074C99.4224 70.3712 100.182 69.6113 101.118 69.6113C102.055 69.6113 102.815 70.3684 102.815 71.3074Z" fill="#D4CFBE"/>
<path d="M102.101 71.3073C102.101 71.8505 101.659 72.2926 101.116 72.2926C100.572 72.2926 100.13 71.8505 100.13 71.3073C100.13 70.7641 100.572 70.322 101.116 70.322C101.662 70.322 102.101 70.7612 102.101 71.3073Z" fill="#A59B95"/>
<path d="M111.743 70.3597C110.839 70.3597 110.099 69.6228 110.099 68.7155V62.4685H110.446V68.7155C110.446 69.4321 111.026 70.0129 111.743 70.0129V70.3597Z" fill="#D4CFBE"/>
<path d="M112.176 69.8772L111.801 69.9234C111.766 69.9263 111.743 69.9552 111.743 69.9898V70.3741C111.743 70.4088 111.769 70.4348 111.801 70.4406L112.176 70.4868C112.358 70.51 112.52 70.3655 112.52 70.1834C112.52 69.9956 112.358 69.854 112.176 69.8772Z" fill="#A59B95"/>
<path d="M115.994 70.3597C116.898 70.3597 117.638 69.6229 117.638 68.7156V62.4686H117.291V68.7156C117.291 69.4322 116.71 70.0129 115.994 70.0129V70.3597Z" fill="#D4CFBE"/>
<path d="M115.56 69.8772L115.936 69.9234C115.97 69.9263 115.994 69.9552 115.994 69.9898V70.3741C115.994 70.4088 115.968 70.4348 115.936 70.4406L115.56 70.4868C115.378 70.51 115.216 70.3655 115.216 70.1834C115.216 69.9956 115.378 69.854 115.56 69.8772Z" fill="#A59B95"/>
<path d="M104.933 46.2528V53.5719C104.933 54.1931 106.213 54.6959 107.796 54.6959C109.377 54.6959 110.66 54.1931 110.66 53.5719V46.2528H104.933Z" fill="#F0BF9C"/>
<path d="M104.933 46.2528V50.0467C105.583 50.7402 106.395 51.1563 107.276 51.1563H107.793H108.31C109.192 51.1563 110.004 50.7402 110.654 50.0467V46.2528H104.933Z" fill="#422C4F"/>
<path d="M112.555 41.7221H103.034C100.986 41.7221 99.3213 40.0607 99.3213 38.0092V40.7744C99.3213 42.823 100.983 44.4873 103.034 44.4873H112.555C114.604 44.4873 116.268 42.8259 116.268 40.7744V38.0092C116.268 40.0607 114.607 41.7221 112.555 41.7221Z" fill="#5195A8"/>
<path d="M107.793 26.6854C103.115 26.6854 99.3213 30.4793 99.3213 35.1573V38.0092C99.3213 40.0579 100.983 41.7222 103.034 41.7222H112.555C114.604 41.7222 116.268 40.0608 116.268 38.0092V35.1573C116.268 30.4793 112.474 26.6854 107.793 26.6854Z" fill="#6CA8BC"/>
<path d="M107.793 49.2811C104.181 49.2811 101.254 46.3541 101.254 42.7422V38.7374C101.254 36.4259 103.13 34.5506 105.441 34.5506H110.142C112.454 34.5506 114.329 36.4259 114.329 38.7374V42.7422C114.332 46.3541 111.405 49.2811 107.793 49.2811Z" fill="#F0BF9C"/>
<path d="M113.63 43.2103V42.3579C109.946 42.1209 109.12 40.7802 107.793 40.7802C106.47 40.7802 105.641 42.1209 101.957 42.3579V43.2103C105.525 42.8635 106.415 41.5373 107.793 41.5373C109.172 41.5373 110.061 42.8635 113.63 43.2103Z" fill="white"/>
<path d="M107.793 41.5374C106.415 41.5374 105.525 42.8636 101.957 43.2104V44.5684C101.957 47.5359 104.259 49.9428 107.103 49.9428H107.793H108.484C111.327 49.9428 113.63 47.5359 113.63 44.5684V43.2104C110.061 42.8636 109.172 41.5374 107.793 41.5374Z" fill="#FDF7E7"/>
<path d="M104.569 36.3478C103.682 36.4171 102.93 36.8997 102.482 37.5931L106.822 37.2609C106.273 36.6454 105.456 36.2813 104.569 36.3478Z" fill="#8C404C"/>
<path d="M105.213 38.7172C105.213 39.0264 104.962 39.2778 104.653 39.2778C104.343 39.2778 104.089 39.0264 104.089 38.7172C104.089 38.4081 104.34 38.1567 104.653 38.1567C104.965 38.1567 105.213 38.4081 105.213 38.7172Z" fill="#422C4F"/>
<path d="M111.021 36.3479C111.908 36.4172 112.659 36.8998 113.107 37.5932L108.767 37.261C109.316 36.6455 110.134 36.2814 111.021 36.3479Z" fill="#8C404C"/>
<path d="M110.376 38.7172C110.376 39.0264 110.628 39.2778 110.937 39.2778C111.246 39.2778 111.498 39.0264 111.498 38.7172C111.498 38.4081 111.246 38.1567 110.937 38.1567C110.628 38.1567 110.376 38.4081 110.376 38.7172Z" fill="#422C4F"/>
<path d="M150.87 91.5077H143.779H137.309H130.386H126.462L117.303 145.284C116.456 150.256 116.028 155.293 116.028 160.338V165.981C116.028 166.553 116.494 167.018 117.066 167.018H125.205C126.222 167.018 127.147 166.426 127.572 165.501L128.878 162.661C131.698 156.521 133.481 149.953 134.148 143.226L138.156 102.878H140.788L137.384 148.864C137.104 152.66 137.237 156.477 137.783 160.245L138.578 165.715C138.688 166.463 139.329 167.018 140.083 167.018H147.74C148.876 167.018 149.899 166.336 150.332 165.287L150.621 164.591C153.262 158.228 154.623 151.403 154.623 144.515V91.5077H150.87Z" fill="white"/>
<path d="M154.626 91.5077H126.459C125.006 89.7769 124.362 87.5087 124.685 85.2751L128.707 57.6981H152.095L156.282 85.3647C156.611 87.5463 156.016 89.7683 154.637 91.4933L154.626 91.5077Z" fill="white"/>
<path d="M147.688 167.018L150.867 170.165C151.624 170.751 152.473 171.214 153.375 171.532C155.299 172.211 156.934 173.525 158.018 175.256L158.206 175.559H139.002L139.991 167.018H147.688Z" fill="#5195A8"/>
<path d="M124.807 167.018L127.985 170.165C128.742 170.751 129.592 171.214 130.493 171.532C132.417 172.211 134.053 173.525 135.136 175.256L135.324 175.559H116.121L117.109 167.018H124.807Z" fill="#5195A8"/>
<path d="M138.367 102.878C140.13 100.997 141.144 98.5378 141.222 95.9604L141.355 91.5077C143.293 89.1297 144.198 86.0755 143.866 83.0271L141.1 57.6981H143.525L146.29 83.0271C146.622 86.0755 145.718 89.1326 143.779 91.5077L143.646 95.9604C143.568 98.5378 142.554 100.997 140.791 102.878H138.367Z" fill="#6CA8BC"/>
<path d="M149.893 57.6981H131.08L135.327 58.588C140.176 59.6022 145.206 59.2959 149.893 57.6981Z" fill="#6CA8BC"/>
<g opacity="0.3">
<g opacity="0.3">
<path opacity="0.3" d="M129.43 91.4297C131.146 91.4413 133.091 91.4586 135.154 91.3921C137.214 91.3286 139.387 91.1812 141.551 90.9298C143.713 90.6755 145.862 90.3173 147.882 89.9041C149.902 89.4938 151.792 89.0286 153.459 88.6211C152.005 89.5284 150.211 90.3953 148.206 91.0859C146.2 91.7764 143.987 92.2879 141.742 92.5508C139.497 92.8109 137.226 92.8253 135.114 92.6173C132.998 92.4063 131.051 91.9758 129.43 91.4297Z" fill="#454F6B"/>
</g>
<g opacity="0.3">
<path opacity="0.3" d="M129.664 73.567C131.155 74.4281 132.86 75.3729 134.723 76.2455C136.587 77.1211 138.607 77.9272 140.676 78.586C142.747 79.239 144.865 79.7389 146.894 80.0914C148.922 80.4468 150.861 80.6549 152.574 80.808C150.901 81.1981 148.899 81.4061 146.764 81.3108C144.628 81.2212 142.36 80.8311 140.184 80.1434C138.009 79.4529 135.931 78.4704 134.131 77.3175C132.328 76.1675 130.808 74.8471 129.664 73.567Z" fill="#454F6B"/>
</g>
<g opacity="0.3">
<path opacity="0.3" d="M135.084 75.8469C137.451 75.8613 140.456 75.7833 143.418 75.3036C146.382 74.8413 149.266 73.986 151.511 73.2348C150.56 73.934 149.364 74.6188 148.006 75.1765C146.651 75.7342 145.14 76.1647 143.594 76.4132C142.051 76.6588 140.479 76.7166 139.017 76.6068C137.555 76.497 136.206 76.2167 135.084 75.8469Z" fill="#454F6B"/>
</g>
<g opacity="0.3">
<path opacity="0.3" d="M140.349 141.29C142.326 140.363 144.571 139.297 146.663 137.953C148.763 136.621 150.679 135.035 152.352 133.633C152.176 134.705 151.696 135.893 150.925 136.994C150.159 138.097 149.107 139.112 147.896 139.886C146.686 140.658 145.322 141.186 143.999 141.415C142.675 141.646 141.395 141.582 140.349 141.29Z" fill="#454F6B"/>
</g>
<g opacity="0.3">
<path opacity="0.3" d="M131.814 141.328C130.921 141.493 129.86 141.467 128.777 141.212C127.693 140.961 126.587 140.481 125.598 139.82C124.613 139.158 123.749 138.314 123.105 137.407C122.458 136.5 122.033 135.529 121.845 134.642C123.293 135.748 124.919 137.069 126.665 138.233C128.401 139.404 130.239 140.409 131.814 141.328Z" fill="#454F6B"/>
</g>
<g opacity="0.3">
<path opacity="0.3" d="M125.931 136.994C127.078 136.679 128.444 136.422 129.803 136.115C131.161 135.818 132.507 135.471 133.68 135.269C132.932 136.191 131.571 137.008 130.071 137.335C128.58 137.676 126.997 137.511 125.931 136.994Z" fill="#454F6B"/>
</g>
</g>
<path d="M161.454 95.4055L165.178 95.8736L165.409 95.6136C166.123 94.8161 166.533 93.7903 166.565 92.7212L166.733 87.1243C166.811 84.5267 166.351 81.9435 165.38 79.5337L158.321 61.9917C157.278 59.397 154.762 57.698 151.965 57.698L153.771 70.0851L157.94 85.957L156.911 91.3892C156.677 92.6345 156.969 93.9203 157.723 94.9374L161.454 95.4055Z" fill="white"/>
<path d="M157.446 106.735L163.635 107.556L165.178 95.8738L157.729 94.9405L157.446 106.735Z" fill="#F7DD8C"/>
<path d="M163.635 107.556L164.369 112.393C164.447 112.907 164.147 113.407 163.655 113.577L160.535 114.67C160.252 114.768 160.02 114.982 159.899 115.259L159.587 115.973C159.414 116.369 159.023 116.623 158.593 116.623C158.041 116.623 157.579 116.21 157.515 115.661L157.2 112.884L156.183 112.396C155.374 112.006 155.059 111.017 155.495 110.232L157.44 106.732L163.635 107.556Z" fill="#F7DD8C"/>
<path d="M157.203 112.887L157.914 108.865L157.611 109.18C156.648 110.18 156.481 111.702 157.203 112.887Z" fill="#EFB96D"/>
<path d="M153.773 70.0882L152.646 62.3617L153.626 64.6126C155.004 67.7795 155.472 71.2671 154.981 74.6853L153.773 70.0882Z" fill="#D9D9D9"/>
<path d="M119.218 95.4055L115.494 95.8736L115.263 95.6136C114.549 94.8161 114.139 93.7903 114.107 92.7212L113.939 87.1243C113.861 84.5267 114.321 81.9435 115.291 79.5337L122.35 61.9917C123.394 59.397 125.91 57.698 128.707 57.698L126.901 70.0851L122.732 85.957L123.76 91.3892C123.995 92.6345 123.703 93.9203 122.949 94.9374L119.218 95.4055Z" fill="white"/>
<path d="M123.226 106.735L117.037 107.556L115.494 95.8737L122.943 94.9404L123.226 106.735Z" fill="#F7DD8C"/>
<path d="M117.037 107.556L116.303 112.393C116.225 112.907 116.525 113.407 117.016 113.577L120.137 114.67C120.42 114.768 120.651 114.982 120.773 115.259L121.085 115.973C121.258 116.369 121.648 116.623 122.079 116.623C122.631 116.623 123.093 116.21 123.157 115.661L123.474 112.884L124.492 112.396C125.301 112.006 125.616 111.017 125.179 110.232L123.235 106.732L117.037 107.556Z" fill="#F7DD8C"/>
<path d="M123.469 112.887L122.758 108.865L123.061 109.18C124.023 110.18 124.191 111.702 123.469 112.887Z" fill="#EFB96D"/>
<path d="M126.898 70.0882L128.025 62.3617L127.046 64.6126C125.668 67.7795 125.199 71.2671 125.691 74.6853L126.898 70.0882Z" fill="#D9D9D9"/>
<path d="M115.494 95.8737L119.218 95.4056L115.494 95.8737Z" fill="white"/>
<path d="M149.893 57.698L149.124 40.7426C148.928 36.4373 145.382 33.048 141.074 33.048C136.974 33.048 133.527 36.1253 133.064 40.1994L131.082 57.6951H149.893V57.698Z" fill="white"/>
<path d="M143.524 52.1618C146.263 52.1618 148.485 49.9398 148.485 47.2006V44.4267C148.485 41.6875 146.263 39.4655 143.524 39.4655C140.785 39.4655 138.563 41.6875 138.563 44.4267V47.2006C138.56 49.9398 140.782 52.1618 143.524 52.1618Z" fill="#EBA58E"/>
<path d="M139.17 41.8435H143.857H147.879C148.656 41.8435 149.283 42.4734 149.283 43.2506V45.0074C149.283 46.0419 148.445 46.8827 147.408 46.8827H146.22C145.414 46.8827 144.697 46.3655 144.443 45.5998C144.255 45.0334 143.455 45.0334 143.267 45.5998C143.013 46.3655 142.296 46.8827 141.49 46.8827H139.638C138.604 46.8827 137.763 46.0447 137.763 45.0074V43.2506C137.763 42.4734 138.393 41.8435 139.17 41.8435Z" fill="#D1F4F5"/>
<path d="M140.534 41.8435H145.22H149.243C150.02 41.8435 150.65 42.4734 150.65 43.2506V45.0074C150.65 46.0419 149.812 46.8827 148.774 46.8827H147.587C146.781 46.8827 146.064 46.3655 145.81 45.5998C145.622 45.0334 144.822 45.0334 144.634 45.5998C144.38 46.3655 143.663 46.8827 142.857 46.8827H141.005C139.97 46.8827 139.129 46.0448 139.129 45.0074V43.2506C139.127 42.4734 139.756 41.8435 140.534 41.8435Z" fill="#E7FAF9"/>
<path d="M140.488 49.4163C140.488 51.8579 142.132 53.3344 144.157 53.3344C146.183 53.3344 147.827 51.8579 147.827 49.4163C147.827 46.9747 146.397 46.1079 144.368 46.1079C142.343 46.1079 140.488 46.9747 140.488 49.4163Z" fill="#E4E4E0"/>
<path d="M142.866 46.692C142.519 47.2092 142.317 47.8189 142.317 48.4748C142.317 50.3269 143.909 51.8266 145.871 51.8266C146.642 51.8266 147.353 51.5925 147.937 51.1995C147.307 52.1415 146.197 52.7685 144.931 52.7685C142.97 52.7685 141.377 51.2689 141.377 49.4167C141.375 48.2927 141.964 47.2988 142.866 46.692Z" fill="#D4CFBE"/>
<path d="M142.317 48.4747C142.317 47.8188 142.519 47.2091 142.866 46.6919C143.449 46.299 144.16 46.0649 144.932 46.0649C146.894 46.0649 148.486 47.5645 148.486 49.4167C148.486 50.0726 148.283 50.6823 147.937 51.1995C147.353 51.5925 146.642 51.8265 145.871 51.8265C143.909 51.8265 142.317 50.3269 142.317 48.4747Z" fill="#E4E4E0"/>
<path d="M132.911 40.7483H149.378C149.586 40.7483 149.754 40.5807 149.754 40.3727V38.5552C149.754 38.3472 149.586 38.1796 149.378 38.1796H132.911C132.703 38.1796 132.536 38.3472 132.536 38.5552V40.3727C132.536 40.5807 132.703 40.7483 132.911 40.7483Z" fill="#6CA8BC"/>
<path d="M144.657 38.1796V36.2466C144.657 34.4811 143.224 33.0479 141.458 33.0479H140.005C141.77 33.0479 143.204 34.4811 143.204 36.2466V38.1796H144.657Z" fill="#6CA8BC"/>
<path opacity="0.5" d="M149.381 40.7484L149.578 40.8756C150.543 41.4997 151.256 42.4503 151.589 43.5512L153.869 51.1447C154.68 53.8435 152.658 56.5625 149.838 56.5625H137.728C135.055 56.5625 133.059 54.1006 133.61 51.4857L135.231 43.817C135.497 42.5543 136.257 41.4506 137.341 40.7484H149.381Z" fill="#D9D9D9"/>
<g opacity="0.5">
<g opacity="0.5">
<path opacity="0.5" d="M149.757 45.0133C149.812 45.0133 149.867 45.0047 149.922 44.9902C150.219 44.9007 150.39 44.5857 150.297 44.2852L149.904 42.9849C149.815 42.6873 149.497 42.5197 149.202 42.6093C148.904 42.6989 148.734 43.0138 148.826 43.3143L149.219 44.6146C149.289 44.8573 149.514 45.0133 149.757 45.0133Z" fill="white"/>
</g>
<g opacity="0.5">
<path opacity="0.5" d="M151.95 52.2544C152.005 52.2544 152.06 52.2457 152.115 52.2313C152.412 52.1417 152.583 51.8268 152.49 51.5263L150.915 46.3339C150.826 46.0363 150.508 45.8687 150.21 45.9582C149.913 46.0478 149.742 46.3628 149.835 46.6633L151.41 51.8556C151.485 52.0984 151.707 52.2544 151.95 52.2544Z" fill="white"/>
</g>
</g>
<path d="M27.4892 104.158L26.5616 85.2521L31.598 58.4696C28.1913 59.4983 25.611 62.2924 24.854 65.7713L21.7131 80.2273C20.9907 83.5531 20.8434 86.9771 21.2739 90.352L23.1925 105.348V108.223C23.1925 109.448 23.9178 110.555 25.0418 111.043L28.3358 112.477L30.1243 109.798L29.4655 107.55L30.6878 106.591L27.4892 104.158Z" fill="#F0BF9C"/>
<path d="M31.5979 58.4725L31.2368 58.5823C28.0237 59.5531 25.5329 62.0988 24.6314 65.3321L21.375 77.0026L28.0294 77.4534L31.5979 58.4725Z" fill="#5297F4"/>
<path d="M22.4009 77.0691L28.0296 77.4505L27.4112 80.7358L22.1553 78.1989L22.4009 77.0691Z" fill="#422C4F"/>
<path d="M26.0791 103.187L29.8412 166.666H39.2464L40.4831 104.097L26.0791 103.187Z" fill="#5DABFF"/>
<path d="M40.4831 104.097L26.0791 103.184L26.4576 109.573C27.0557 109.734 27.6625 109.873 28.2635 109.997C28.6247 110.073 28.9859 110.142 29.3471 110.211C33.0427 110.902 35.8946 113.861 36.5303 117.565L39.833 136.835L40.3386 111.223L40.4831 104.097Z" fill="#5297F4"/>
<path d="M31.3898 172.135H38.1512L37.6022 166.666H30.8148L30.5837 167.249C30.2254 168.148 29.6244 168.914 28.8586 169.48C29.2343 169.662 29.6041 169.855 29.948 170.09C30.653 170.575 31.2685 171.283 31.3898 172.135Z" fill="#F0BF9C"/>
<path d="M31.3899 172.135C31.2714 171.286 30.656 170.575 29.9452 170.09C29.6013 169.856 29.2315 169.662 28.8558 169.48C28.5611 169.697 28.2462 169.887 27.9081 170.038L24.0535 171.765C22.499 172.462 21.3923 173.883 21.0947 175.559H38.4951L38.1512 172.135H31.3899Z" fill="#5297F4"/>
<path d="M30.812 166.666H37.6022L37.8334 168.966L30.5808 167.249L30.812 166.666Z" fill="#422C4F"/>
<path d="M37.7324 103.077L43.1964 166.666H52.6045L53.8383 104.097L37.7324 103.077Z" fill="#5DABFF"/>
<path d="M53.7285 109.711L53.8383 104.097L37.7324 103.077L38.4288 111.197C43.5663 111.361 48.7211 110.864 53.7285 109.711Z" fill="#5297F4"/>
<path d="M50.0444 160.213C50.7263 145.731 50.8535 122.234 50.3247 107.732C49.6428 122.214 49.5185 145.711 50.0444 160.213Z" fill="#5297F4"/>
<path d="M45.3085 172.135H52.0699L51.5209 166.666H44.7335L44.5024 167.249C44.1441 168.148 43.5431 168.914 42.7773 169.48C43.153 169.662 43.5228 169.856 43.8667 170.09C44.5746 170.575 45.1901 171.283 45.3085 172.135Z" fill="#F0BF9C"/>
<path d="M45.3086 172.135C45.1901 171.286 44.5747 170.575 43.8639 170.09C43.52 169.856 43.1502 169.662 42.7745 169.48C42.4798 169.697 42.1649 169.887 41.8268 170.038L37.9722 171.765C36.4177 172.462 35.3082 173.883 35.0134 175.559H52.4138L52.0699 172.135H45.3086Z" fill="#5DABFF"/>
<path d="M44.7336 166.666H51.521L51.7521 168.966L44.5024 167.249L44.7336 166.666Z" fill="#422C4F"/>
<path d="M35.0653 59.6168C32.7711 59.0822 30.6184 57.9785 28.8241 56.4528C27.1829 55.0572 26.6599 52.7427 27.4602 50.7432C27.5007 50.645 27.5383 50.5467 27.5787 50.4485C28.1942 48.9113 28.2809 47.221 27.8908 45.6115C27.4111 43.6438 27.1944 41.6183 27.7001 39.6852C28.3647 37.1454 30.4306 35.0765 32.8982 34.1779C35.3658 33.2793 38.1686 33.496 40.5784 34.5362C41.8325 33.5913 43.9793 33.8543 45.2565 34.7645C46.5336 35.6747 47.3224 37.1223 47.883 38.5844C48.5794 40.4018 48.9926 42.3291 49.111 44.2737C49.2266 46.2183 49.8854 48.0936 50.9978 49.6944C51.0123 49.7146 51.0267 49.7348 51.0383 49.755C52.8038 52.2949 52.3386 55.7882 49.9316 57.73C48.7441 58.6893 47.3484 59.429 45.9239 59.8971C42.5953 60.9922 38.4749 60.4114 35.0653 59.6168Z" fill="#422C4F"/>
<path d="M37.1805 37.5818C36.0883 37.7899 34.8284 38.2551 33.612 38.807C32.3955 39.3617 31.2166 40.009 30.344 40.6967C31.4507 40.7516 32.8318 40.4482 34.0945 39.8703C35.3601 39.2953 36.4928 38.4545 37.1805 37.5818Z" fill="#454F6B"/>
<path d="M37.4464 36.6254C36.7038 36.2122 35.6029 36.0042 34.5222 36.114C33.4416 36.2151 32.4014 36.6283 31.7512 37.1773C32.6036 37.1946 33.6063 37.0993 34.6089 37.0039C35.6115 36.9028 36.6142 36.8045 37.4464 36.6254Z" fill="#454F6B"/>
<path d="M45.4154 42.4852C44.4763 40.8208 42.2601 38.9513 40.46 38.3128C41.3961 39.9771 43.6153 41.8437 45.4154 42.4852Z" fill="#454F6B"/>
<path d="M37.2094 57.2561L31.598 58.4725C28.9282 59.0504 26.9633 61.3273 26.7784 64.0521L26.7206 64.9074C26.5443 67.4877 25.8538 70.0044 24.6864 72.3131C23.6375 74.3848 23.9814 76.89 25.5504 78.6005C26.5299 79.6696 27.0038 81.1086 26.8506 82.5504L24.4495 105.155C33.6091 106.747 42.9479 107.021 52.1855 105.967L56.8838 105.432L54.9854 96.5441C53.3124 88.7108 52.8298 80.6694 53.5493 72.6916L54.2572 64.8525C54.5462 61.6538 52.3097 58.7788 49.14 58.2674L42.8352 57.2532H37.2094V57.2561Z" fill="#5DABFF"/>
<path d="M49.1805 61.4805C48.1576 63.1361 47.6173 65.0403 47.6173 66.9849V68.5192L31.26 72.0733L34.3546 98.7026L48.8713 96.7782C50.9835 96.4979 53.1362 96.7869 55.101 97.6132L55.2224 97.6653L54.9854 96.5442C53.3124 88.7108 52.8299 80.6694 53.5494 72.6916L54.2573 64.8525C54.4422 62.7865 53.5725 60.8592 52.0815 59.6139L49.1805 61.4805Z" fill="#5297F4"/>
<path d="M44.6381 66.4909C42.604 66.0662 39.9283 65.8263 37.3827 65.2167C36.1113 64.9104 34.8718 64.5001 33.7535 63.9886C32.6324 63.4801 31.6413 62.8646 30.8149 62.2318C31.3986 63.09 32.2915 63.954 33.401 64.6417C34.5077 65.3351 35.8108 65.8552 37.1515 66.176C39.8503 66.8203 42.5895 66.7221 44.6381 66.4909Z" fill="#5297F4"/>
<path d="M46.8775 60.3421C45.6611 61.0529 44.0603 61.8533 42.3526 62.3647C40.6507 62.8877 38.8737 63.1102 37.4666 63.1969C38.8275 63.561 40.7548 63.561 42.5491 63.0062C44.3464 62.4716 45.9471 61.3967 46.8775 60.3421Z" fill="#5297F4"/>
<path d="M53.0205 101.581C51.1568 101.93 49.0099 102.294 46.707 102.569C44.407 102.843 41.9538 103.025 39.4949 103.077C37.0388 103.126 34.5799 103.043 32.2683 102.861C29.9568 102.681 27.7983 102.404 25.9202 102.13C27.729 102.693 29.873 103.196 32.1932 103.525C34.5134 103.857 37.0128 104.019 39.5093 103.97C42.0058 103.918 44.4965 103.658 46.8023 103.23C49.1139 102.806 51.2348 102.216 53.0205 101.581Z" fill="#5297F4"/>
<path d="M44.6208 100.266C43.4332 100.306 42.0867 100.324 40.668 100.24C39.2492 100.159 37.7583 99.9769 36.2875 99.685C34.8168 99.3874 33.3721 98.98 32.0314 98.5061C30.6906 98.0351 29.454 97.4977 28.3733 97.0036C29.243 97.8127 30.3757 98.6188 31.6962 99.2863C33.0138 99.9566 34.5163 100.483 36.0622 100.795C37.6109 101.104 39.1972 101.199 40.6709 101.089C42.1474 100.982 43.5054 100.676 44.6208 100.266Z" fill="#5297F4"/>
<path d="M48.2341 69.3511L31.2612 72.0671L35.1696 96.4921L52.1425 93.7762L48.2341 69.3511Z" fill="#BD6C67"/>
<path d="M51.0382 58.9059C49.2381 60.5327 48.5591 63.0667 49.3046 65.3754L54.6703 81.9812L38.8042 83.5877L36.9579 82.5128C36.1257 82.0303 35.0595 82.4175 34.7359 83.3219L34.4816 84.0269L32.771 84.4806C32.2596 84.6164 31.9244 85.1076 31.9851 85.6335C32.0342 86.064 32.3405 86.4223 32.7595 86.5379L33.3403 86.6997C33.5714 86.7632 33.7737 86.9048 33.9153 87.0984L35.5998 89.4129C36.3309 90.4155 37.738 90.6351 38.7378 89.8983L41.1881 88.0982L57.7592 87.162C60.6342 87.0002 62.6077 84.2003 61.79 81.438L57.2882 66.1816C56.3433 62.98 54.0664 60.3275 51.0382 58.9059Z" fill="#F0BF9C"/>
<path d="M53.3901 78.014L60.4809 76.9998L60.686 77.6904L54.1905 80.4903L53.3901 78.014Z" fill="#422C4F"/>
<path d="M51.0382 58.9059L50.8013 59.1197C49.1254 60.6367 48.4117 62.9483 48.9434 65.1443L52.1015 78.196L61.9777 76.783L57.5077 65.4621C56.4126 62.6853 54.2975 60.4344 51.5959 59.1659L51.0382 58.9059Z" fill="#5DABFF"/>
<path d="M33.4415 48.6513C33.4415 49.8938 32.4331 50.9022 31.1906 50.9022C29.9481 50.9022 28.9397 49.8938 28.9397 48.6513C28.9397 47.4088 29.9481 46.4004 31.1906 46.4004C32.4331 46.4004 33.4415 47.4088 33.4415 48.6513Z" fill="#EBA588"/>
<path d="M31.1905 49.9255C31.8943 49.9255 32.4648 49.355 32.4648 48.6512C32.4648 47.9475 31.8943 47.377 31.1905 47.377C30.4868 47.377 29.9163 47.9475 29.9163 48.6512C29.9163 49.355 30.4868 49.9255 31.1905 49.9255Z" fill="#E78882"/>
<path d="M42.8321 51.9741V50.3993H37.2092V56.6377C38.6915 56.6377 40.1565 55.9327 41.1851 54.8491C41.9537 54.0372 42.4912 53.0403 42.8321 51.9741Z" fill="#422C4F"/>
<path d="M41.1851 54.8491C40.1565 55.9326 38.6886 56.6405 37.2092 56.6377V58.1026C38.9314 59.1775 41.1129 59.1775 42.8321 58.1026V51.9769C42.4912 53.0403 41.9537 54.0371 41.1851 54.8491Z" fill="#F0BF9C"/>
<path d="M30.1069 44.4644L31.8377 50.8501C32.2278 52.2891 33.1842 53.5056 34.4903 54.225C35.5536 54.8087 36.7614 55.0745 37.9721 54.985C39.3099 54.8896 40.5841 54.3666 41.6041 53.494L42.0029 53.153C43.046 52.2631 43.7192 51.0119 43.8868 49.651L44.3116 46.2385C42.3525 45.3255 40.7633 43.7709 39.8011 41.8321L39.0643 40.344L36.1488 42.5776C34.6838 43.6987 32.9097 44.3431 31.0691 44.4211L30.1069 44.4644Z" fill="#F0BF9C"/>
<path d="M37.9606 43.3982C37.0909 43.3433 36.2934 43.7103 35.7646 44.32L40.0237 44.5945C39.573 43.9212 38.8304 43.4531 37.9606 43.3982Z" fill="#422C4F"/>
<path d="M32.1383 43.6149C32.8203 43.5138 33.4733 43.8403 33.9298 44.4211L30.5896 44.9152C30.8988 44.2188 31.4564 43.7161 32.1383 43.6149Z" fill="#422C4F"/>
<path d="M38.2581 46.3311C38.2581 46.6721 38.024 46.9466 37.7322 46.9466C37.4432 46.9466 37.2063 46.6721 37.2063 46.3311C37.2063 45.9901 37.4403 45.7156 37.7322 45.7156C38.024 45.7156 38.2581 45.9901 38.2581 46.3311Z" fill="#422C4F"/>
<path d="M33.1323 46.4004C33.1323 46.7413 32.8983 47.0158 32.6065 47.0158C32.3175 47.0158 32.0806 46.7413 32.0806 46.4004C32.0806 46.0594 32.3146 45.7849 32.6065 45.7849C32.8983 45.7849 33.1323 46.0623 33.1323 46.4004Z" fill="#422C4F"/>
<path d="M45.1329 46.5729L38.3083 49.234L38.4448 49.584L45.2693 46.9229L45.1329 46.5729Z" fill="#F7DD8C"/>
<path d="M44.5139 49.737L38.8088 51.0878L38.8954 51.4533L44.6004 50.1025L44.5139 49.737Z" fill="#F7DD8C"/>
<path d="M37.9664 48.1745C36.5014 47.484 35.9582 46.6865 34.866 46.7443C33.7738 46.802 33.6119 47.5013 32.3839 48.4693C31.5055 49.1598 31.1386 50.1654 31.1877 51.1911C31.2426 52.2891 31.7771 53.4074 32.6844 54.1789C34.4354 55.6669 36.6863 55.5485 38.2698 53.8841C39.8503 52.2198 40.0728 49.1685 37.9664 48.1745Z" fill="white"/>
<path d="M45.8285 50.9022C47.0717 50.9022 48.0794 49.8944 48.0794 48.6513C48.0794 47.4082 47.0717 46.4004 45.8285 46.4004C44.5854 46.4004 43.5776 47.4082 43.5776 48.6513C43.5776 49.8944 44.5854 50.9022 45.8285 50.9022Z" fill="#F0BF9C"/>
<path d="M47.1056 48.6512C47.1056 49.3563 46.5335 49.9255 45.8314 49.9255C45.1264 49.9255 44.5571 49.3534 44.5571 48.6512C44.5571 47.9462 45.1292 47.377 45.8314 47.377C46.5335 47.377 47.1056 47.9462 47.1056 48.6512Z" fill="#EBA588"/>
<path d="M86.3966 89.5775H79.1556H72.5502H65.4826H61.4922L58.9004 166.666H69.9757L72.3133 101.185H79.4098L82.1173 166.666H93.1926L90.2309 89.5775H86.3966Z" fill="#3E4870"/>
<path d="M69.1898 166.666H59.8222L59.0969 168.165C58.5335 169.333 57.5597 170.251 56.3635 170.748C55.1239 171.263 54.1415 172.228 53.5896 173.43H69.8977L69.1898 166.666Z" fill="#422C4F"/>
<path d="M53.5897 173.43C53.477 173.673 53.3788 173.924 53.3037 174.187L52.9136 175.559H70.103L69.8979 173.43H53.5897Z" fill="#422C4F"/>
<path d="M83.4782 166.666H92.8458L93.5711 168.165C94.1345 169.333 95.1083 170.251 96.3045 170.748C97.5441 171.263 98.5265 172.228 99.0784 173.43H82.7703L83.4782 166.666Z" fill="#422C4F"/>
<path d="M99.0785 173.43C99.1912 173.673 99.2894 173.924 99.3645 174.187L99.7546 175.559H82.5652L82.7703 173.43H99.0785Z" fill="#422C4F"/>
<path d="M90.2455 93.2327H61.4924L61.9808 68.7618L63.7896 55.06H87.6652L89.5376 68.7503L90.2455 93.2327Z" fill="#6BC5FF"/>
<path d="M79.4099 101.185H77.2457H74.5758H72.3133L71.4263 126.352H74.2406L75.9396 113.768L77.6357 126.352H80.4501L79.4099 101.185Z" fill="#D9D9D9"/>
<path d="M72.5676 55.06L65.2631 130.877H56.4502L61.9806 67.45L63.7894 55.06H72.5676Z" fill="white"/>
<path d="M72.5676 55.06L66.9332 60.1715C65.9016 61.1077 65.9536 62.746 67.0459 63.6128L68.1236 64.4681L65.6243 66.771C64.951 67.3922 64.7199 68.3602 65.0377 69.2184L69.9353 82.3626L72.5676 55.06Z" fill="#D9D9D9"/>
<path d="M72.5675 55.06L67.7623 60.5991C67.0804 61.3851 67.1642 62.5726 67.9502 63.2517L69.3487 64.4652L66.4448 67.4327C65.9651 67.9239 65.7917 68.6347 65.9882 69.2906L69.9352 82.3568L72.5675 55.06Z" fill="white"/>
<path d="M78.887 55.06L86.1944 130.877H95.0044L89.474 67.45L87.668 55.06H78.887Z" fill="white"/>
<path d="M78.887 55.06L84.5214 60.1715C85.553 61.1076 85.5009 62.746 84.4087 63.6128L83.331 64.4681L85.8304 66.771C86.5036 67.3922 86.7348 68.3602 86.4169 69.2184L81.5193 82.3626L78.887 55.06Z" fill="#D9D9D9"/>
<path d="M78.887 55.06L83.6921 60.5991C84.3741 61.385 84.2903 62.5726 83.5043 63.2516L82.1058 64.4652L85.0097 67.4327C85.4894 67.9239 85.6628 68.6347 85.4663 69.2906L81.5193 82.3568L78.887 55.06Z" fill="white"/>
<path d="M50.3217 105.155L58.9006 104.019L58.6174 98.6359L50.0039 99.6848L50.3217 105.155Z" fill="white"/>
<path d="M61.9808 67.4499L63.7867 55.0628C60.9897 55.0628 58.473 56.7618 57.4299 59.3565L50.4807 76.624C49.4405 79.2101 48.984 81.9955 49.1429 84.7781L50.004 99.6848L58.6146 98.636L57.8084 83.3218L61.9808 67.4499Z" fill="white"/>
<path d="M52.119 104.918L51.2522 110.645L55.6673 112.19L56.4504 113.988H58.1291L58.5539 110.249L60.2095 109.451L58.3112 104.097L52.119 104.918Z" fill="#F2C9AD"/>
<path d="M58.5538 110.249L57.843 106.226L58.1464 106.541C59.1086 107.541 59.2762 109.064 58.5538 110.249Z" fill="#EBA58E"/>
<path d="M58.3113 104.097L52.1191 104.918L51.8389 106.767L58.3113 104.097Z" fill="#402C49"/>
<path d="M61.9808 67.4499L63.1077 59.7234L62.1281 61.9743C60.7499 65.1412 60.2818 68.6288 60.773 72.047L61.9808 67.4499Z" fill="#D9D9D9"/>
<path d="M101.136 105.155L92.5571 104.019L92.8403 98.6359L101.451 99.6848L101.136 105.155Z" fill="white"/>
<path d="M89.4741 67.4499L87.6682 55.0628C90.4652 55.0628 92.9819 56.7618 94.025 59.3565L100.974 76.624C102.014 79.2101 102.471 81.9955 102.312 84.7781L101.451 99.6848L92.8404 98.636L93.6465 83.3218L89.4741 67.4499Z" fill="white"/>
<path d="M99.3359 104.918L100.206 110.645L95.7876 112.19L95.0046 113.988H93.3287L92.9039 110.249L91.2454 109.451L93.1466 104.097L99.3359 104.918Z" fill="#F2C9AD"/>
<path d="M92.9041 110.249L93.6149 106.226L93.3115 106.541C92.3493 107.541 92.1817 109.064 92.9041 110.249Z" fill="#EBA58E"/>
<path d="M93.1467 104.097L99.336 104.918L99.6162 106.767L93.1467 104.097Z" fill="#402C49"/>
<path d="M89.4743 67.4499L88.3474 59.7234L89.3269 61.9743C90.7052 65.1412 91.1733 68.6288 90.6821 72.047L89.4743 67.4499Z" fill="#D9D9D9"/>
<path d="M73.0388 53.3407C70.3892 53.9909 68.4388 56.1551 68.0632 58.8567L67.9678 59.5386C67.5893 62.2836 67.5546 65.072 67.8667 67.8285L68.3521 72.1078L69.0398 72.0298L68.5544 67.7505C68.2481 65.0546 68.2828 62.3241 68.6526 59.634L68.748 58.9521C69.0831 56.5336 70.8313 54.5948 73.2035 54.0111L73.6283 53.9071L73.4636 53.2367L73.0388 53.3407Z" fill="#495375"/>
<path d="M81.6812 59.5011L81.4963 57.3716C81.32 55.346 79.8695 53.7048 77.8816 53.2801L77.6735 53.2367L77.5291 53.9129L77.7371 53.9562C79.4245 54.3145 80.6583 55.7101 80.8086 57.4293L80.9906 59.5473C79.124 59.842 77.688 61.4573 77.688 63.4077V64.5605H78.3786V63.4077C78.3786 61.6306 79.8233 60.1859 81.6003 60.1859C83.3773 60.1859 84.8221 61.6306 84.8221 63.4077V64.5605H85.5127V63.4077C85.5127 61.2781 83.8021 59.5415 81.6812 59.5011Z" fill="#495375"/>
<path d="M70.9875 74.1637C71.4145 72.9843 70.8045 71.6821 69.6251 71.2551C68.4457 70.8281 67.1434 71.4381 66.7165 72.6175C66.2895 73.797 66.8995 75.0992 68.0789 75.5262C69.2583 75.9531 70.5606 75.3431 70.9875 74.1637Z" fill="#E4E4E0"/>
<path d="M68.849 75.0925C69.7857 75.0925 70.5451 74.3331 70.5451 73.3964C70.5451 72.4596 69.7857 71.7003 68.849 71.7003C67.9122 71.7003 67.1528 72.4596 67.1528 73.3964C67.1528 74.3331 67.9122 75.0925 68.849 75.0925Z" fill="#D4CFBE"/>
<path d="M69.8344 73.3964C69.8344 73.9396 69.3923 74.3817 68.8491 74.3817C68.3059 74.3817 67.8638 73.9396 67.8638 73.3964C67.8638 72.8532 68.3059 72.4111 68.8491 72.4111C69.3952 72.4111 69.8344 72.8503 69.8344 73.3964Z" fill="#A59B95"/>
<path d="M79.4766 72.4488C78.5722 72.4488 77.8325 71.712 77.8325 70.8047V64.5576H78.1793V70.8047C78.1793 71.5212 78.76 72.102 79.4766 72.102V72.4488Z" fill="#D4CFBE"/>
<path d="M79.91 71.9663L79.5343 72.0125C79.4997 72.0154 79.4766 72.0443 79.4766 72.079V72.4633C79.4766 72.498 79.5026 72.524 79.5343 72.5297L79.91 72.576C80.092 72.5991 80.2538 72.4546 80.2538 72.2726C80.2538 72.0848 80.092 71.9432 79.91 71.9663Z" fill="#A59B95"/>
<path d="M83.7271 72.4488C84.6315 72.4488 85.3712 71.712 85.3712 70.8047V64.5577H85.0244V70.8047C85.0244 71.5213 84.4436 72.1021 83.7271 72.1021V72.4488Z" fill="#D4CFBE"/>
<path d="M83.2936 71.9663L83.6692 72.0125C83.7039 72.0154 83.727 72.0443 83.727 72.079V72.4633C83.727 72.498 83.701 72.524 83.6692 72.5297L83.2936 72.576C83.1115 72.5991 82.9497 72.4546 82.9497 72.2726C82.9497 72.0848 83.1115 71.9432 83.2936 71.9663Z" fill="#A59B95"/>
<path d="M78.8869 55.0604L75.7258 59.1663L72.5676 55.0604V45.1755H78.8869V55.0604Z" fill="#F2C9AD"/>
<path d="M72.5676 45.1751V50.9424C73.4749 51.7659 74.5614 52.2485 75.7287 52.2485C76.896 52.2485 77.9796 51.7659 78.8869 50.9424V45.1722H72.5676V45.1751Z" fill="#402C49"/>
<path d="M70.6145 44.3862C70.6145 45.8627 69.4153 47.0618 67.9388 47.0618C66.4623 47.0618 65.2632 45.8627 65.2632 44.3862C65.2632 42.9097 66.4623 41.7105 67.9388 41.7105C69.4153 41.7105 70.6145 42.9097 70.6145 44.3862Z" fill="#F2C9AD"/>
<path d="M67.9389 45.7961C68.7176 45.7961 69.3489 45.1648 69.3489 44.3861C69.3489 43.6073 68.7176 42.976 67.9389 42.976C67.1601 42.976 66.5288 43.6073 66.5288 44.3861C66.5288 45.1648 67.1601 45.7961 67.9389 45.7961Z" fill="#EBA58E"/>
<path d="M85.4083 46.2782C86.4532 45.2333 86.4532 43.5392 85.4083 42.4943C84.3634 41.4494 82.6693 41.4494 81.6244 42.4943C80.5795 43.5392 80.5795 45.2333 81.6244 46.2782C82.6693 47.3231 84.3634 47.3231 85.4083 46.2782Z" fill="#F2C9AD"/>
<path d="M82.1086 44.3862C82.1086 45.1634 82.7385 45.7962 83.5187 45.7962C84.296 45.7962 84.9288 45.1663 84.9288 44.3862C84.9288 43.6089 84.2989 42.9761 83.5187 42.9761C82.7385 42.979 82.1086 43.6089 82.1086 44.3862Z" fill="#EBA58E"/>
<path d="M75.7289 29.8955C71.5276 29.8955 68.1238 33.3022 68.1238 37.5005V43.2044C68.1238 47.4056 71.5305 50.8094 75.7289 50.8094C79.9301 50.8094 83.3339 47.4027 83.3339 43.2044V37.5005C83.3339 33.2993 79.9301 29.8955 75.7289 29.8955Z" fill="#F2C9AD"/>
<path d="M72.3944 40.0781C72.12 40.0781 71.8975 40.3006 71.8975 40.5751V41.2136C71.8975 41.4881 72.12 41.7106 72.3944 41.7106C72.6689 41.7106 72.8914 41.4881 72.8914 41.2136V40.5751C72.8914 40.3006 72.6689 40.0781 72.3944 40.0781Z" fill="#402C49"/>
<path d="M78.2108 46.036C76.6418 46.4117 74.9891 46.429 73.4143 46.0852C73.5443 46.8191 74.0904 47.475 74.7492 47.816C75.408 48.1598 76.2286 48.1743 76.9019 47.8593C77.578 47.5472 78.0519 46.7642 78.2108 46.036Z" fill="white"/>
<path d="M71.9003 38.0178C71.0739 38.1189 70.392 38.6015 70.002 39.2689L74.0443 38.7777C73.504 38.2229 72.7267 37.9167 71.9003 38.0178Z" fill="#6A3649"/>
<path d="M79.0632 40.0781C79.3377 40.0781 79.5601 40.3006 79.5601 40.5751V41.2136C79.5601 41.4881 79.3377 41.7106 79.0632 41.7106C78.7887 41.7106 78.5662 41.4881 78.5662 41.2136V40.5751C78.5662 40.3006 78.7887 40.0781 79.0632 40.0781Z" fill="#402C49"/>
<path d="M79.5544 38.0178C80.3808 38.1189 81.0627 38.6015 81.4528 39.2689L77.4104 38.7777C77.9507 38.2229 78.7309 37.9167 79.5544 38.0178Z" fill="#6A3649"/>
<path d="M85.3305 32.2706C85.1832 31.7881 84.9751 31.32 84.7093 30.8953C83.8627 29.5517 82.5249 28.5721 81.0744 27.9307C79.4158 27.1967 77.2631 26.5322 75.437 26.72C73.582 26.9107 71.7818 27.8324 70.9063 29.2887C69.3633 29.2078 67.7135 30.0458 66.8379 31.1698C65.9624 32.2938 65.6475 33.6952 65.6706 35.059C65.6937 36.4199 66.0376 37.7606 66.3785 39.0898C66.6068 39.9797 67.7741 43.057 68.1989 43.8892L69.2044 36.2552C69.9499 36.7898 70.9988 37.1538 71.9552 37.2261C72.3135 37.2521 72.7007 37.2376 73.0012 37.0643C73.2699 36.9082 73.4404 36.628 73.4404 36.3419C73.4375 36.0559 73.3248 35.6773 73.0532 35.5242C73.9489 36.2119 74.966 36.7118 76.1189 36.9632C76.639 37.0787 77.2689 37.1163 77.6388 36.7753C77.9104 36.5268 77.9537 36.1368 77.8497 35.8016C77.7457 35.4693 77.5174 35.1775 77.292 34.8972C77.7833 35.4866 78.4392 35.9518 79.1355 36.2755C79.8319 36.5991 80.6265 36.7291 81.3777 36.5731C81.8372 36.4777 82.2735 36.2726 82.6347 35.9749C82.6491 36.0732 82.6607 36.1685 82.6751 36.2552L83.2906 44.0481C83.6662 43.216 84.9636 39.9797 85.1658 39.0898C85.4663 37.7606 85.7697 36.4199 85.79 35.059C85.8015 34.1083 85.6686 33.1462 85.3305 32.2706Z" fill="#6A3649"/>
<path d="M76.7691 43.6609C76.0988 43.6493 75.4284 43.6407 74.7581 43.6291C74.8736 44.0596 75.2926 44.4295 75.7347 44.4555C76.1797 44.4815 76.6073 44.0741 76.7691 43.6609Z" fill="#EBA58E"/>
<path d="M81.5626 44.337V43.4846C77.8785 43.2477 77.0522 41.907 75.7259 41.907C74.4025 41.907 73.5732 43.2477 69.8892 43.4846V44.337C73.4577 43.9903 74.3476 42.664 75.7259 42.664C77.1042 42.664 77.997 43.9932 81.5626 44.337Z" fill="white"/>
<path d="M75.7288 42.6639C74.3505 42.6639 73.4606 43.9902 69.8921 44.337V45.695C69.8921 48.6625 72.195 51.0694 75.0382 51.0694H75.7288H76.4194C79.2626 51.0694 81.5655 48.6625 81.5655 45.695V44.337C77.997 43.9931 77.1042 42.6639 75.7288 42.6639Z" fill="#FDF7E7"/>
<path d="M182.249 175.559H5.52637C10.6321 180.7 19.0664 181.812 26.2756 181.104C33.4848 180.399 40.6883 178.486 47.8802 179.368C58.3054 180.642 67.6181 187.666 78.1213 187.637C85.345 187.617 92.0688 184.251 98.6972 181.379C105.326 178.507 112.671 176.027 119.663 177.851C123.752 178.917 127.528 181.425 131.756 181.442C136.061 181.462 139.921 178.897 144.114 177.932C150.17 176.536 156.411 178.533 162.537 179.581C168.666 180.63 178.123 180.206 182.249 175.559Z" fill="#0077BD"/>
</svg>
