<svg width="20" height="20" viewBox="0 0 20 20" fill="none" xmlns="http://www.w3.org/2000/svg">
<path d="M10.1098 13.3901L6.22984 17.2701C6.00035 17.5005 5.72763 17.6833 5.42732 17.808C5.12701 17.9328 4.80502 17.997 4.47984 17.997C4.15465 17.997 3.83266 17.9328 3.53236 17.808C3.23205 17.6833 2.95932 17.5005 2.72984 17.2701C2.49824 17.0413 2.31436 16.7688 2.18886 16.4684C2.06336 16.168 1.99874 15.8456 1.99874 15.5201C1.99874 15.1945 2.06336 14.8722 2.18886 14.5718C2.31436 14.2714 2.49824 13.9989 2.72984 13.7701L6.60984 9.89008C6.79814 9.70178 6.90393 9.44638 6.90393 9.18008C6.90393 8.91378 6.79814 8.65839 6.60984 8.47008C6.42153 8.28178 6.16614 8.17599 5.89984 8.17599C5.63353 8.17599 5.37814 8.28178 5.18984 8.47008L1.30984 12.3601C0.528193 13.2109 0.105457 14.3307 0.129911 15.4858C0.154365 16.6409 0.624118 17.7419 1.44107 18.5588C2.25802 19.3758 3.359 19.8456 4.51408 19.87C5.66917 19.8945 6.78904 19.4717 7.63984 18.6901L11.5298 14.8101C11.7181 14.6218 11.8239 14.3664 11.8239 14.1001C11.8239 13.8338 11.7181 13.5784 11.5298 13.3901C11.3415 13.2018 11.0861 13.096 10.8198 13.096C10.5535 13.096 10.2981 13.2018 10.1098 13.3901ZM6.82984 13.1701C6.92328 13.2628 7.03409 13.3361 7.15593 13.3859C7.27777 13.4356 7.40823 13.4608 7.53984 13.4601C7.67144 13.4608 7.80191 13.4356 7.92374 13.3859C8.04558 13.3361 8.1564 13.2628 8.24984 13.1701L13.1698 8.25008C13.3581 8.06178 13.4639 7.80638 13.4639 7.54008C13.4639 7.27378 13.3581 7.01838 13.1698 6.83008C12.9815 6.64178 12.7261 6.53599 12.4598 6.53599C12.1935 6.53599 11.9381 6.64178 11.7498 6.83008L6.82984 11.7501C6.73611 11.843 6.66171 11.9536 6.61095 12.0755C6.56018 12.1974 6.53404 12.3281 6.53404 12.4601C6.53404 12.5921 6.56018 12.7228 6.61095 12.8447C6.66171 12.9665 6.73611 13.0771 6.82984 13.1701ZM18.9998 16.0001H17.9998V15.0001C17.9998 14.7349 17.8945 14.4805 17.7069 14.293C17.5194 14.1054 17.2651 14.0001 16.9998 14.0001C16.7346 14.0001 16.4803 14.1054 16.2927 14.293C16.1052 14.4805 15.9998 14.7349 15.9998 15.0001V16.0001H14.9998C14.7346 16.0001 14.4803 16.1054 14.2927 16.293C14.1052 16.4805 13.9998 16.7349 13.9998 17.0001C13.9998 17.2653 14.1052 17.5197 14.2927 17.7072C14.4803 17.8947 14.7346 18.0001 14.9998 18.0001H15.9998V19.0001C15.9998 19.2653 16.1052 19.5197 16.2927 19.7072C16.4803 19.8947 16.7346 20.0001 16.9998 20.0001C17.2651 20.0001 17.5194 19.8947 17.7069 19.7072C17.8945 19.5197 17.9998 19.2653 17.9998 19.0001V18.0001H18.9998C19.2651 18.0001 19.5194 17.8947 19.7069 17.7072C19.8945 17.5197 19.9998 17.2653 19.9998 17.0001C19.9998 16.7349 19.8945 16.4805 19.7069 16.293C19.5194 16.1054 19.2651 16.0001 18.9998 16.0001ZM14.8098 11.5301L18.6898 7.64008C19.4715 6.78929 19.8942 5.66941 19.8698 4.51433C19.8453 3.35924 19.3756 2.25826 18.5586 1.44131C17.7417 0.624362 16.6407 0.154609 15.4856 0.130155C14.3305 0.105701 13.2106 0.528437 12.3598 1.31008L8.46984 5.19008C8.3766 5.28332 8.30264 5.39401 8.25218 5.51583C8.20172 5.63765 8.17575 5.76822 8.17575 5.90008C8.17575 6.03194 8.20172 6.16251 8.25218 6.28433C8.30264 6.40615 8.3766 6.51684 8.46984 6.61008C8.56308 6.70332 8.67377 6.77728 8.79559 6.82774C8.91741 6.8782 9.04798 6.90417 9.17984 6.90417C9.3117 6.90417 9.44226 6.8782 9.56409 6.82774C9.68591 6.77728 9.7966 6.70332 9.88984 6.61008L13.7698 2.73008C13.9993 2.49969 14.272 2.31687 14.5724 2.19213C14.8727 2.06739 15.1947 2.00318 15.5198 2.00318C15.845 2.00318 16.167 2.06739 16.4673 2.19213C16.7676 2.31687 17.0403 2.49969 17.2698 2.73008C17.5014 2.95889 17.6853 3.23139 17.8108 3.53179C17.9363 3.83219 18.0009 4.15452 18.0009 4.48008C18.0009 4.80564 17.9363 5.12797 17.8108 5.42837C17.6853 5.72877 17.5014 6.00127 17.2698 6.23008L13.3898 10.1101C13.2961 10.203 13.2217 10.3136 13.1709 10.4355C13.1202 10.5574 13.094 10.6881 13.094 10.8201C13.094 10.9521 13.1202 11.0828 13.1709 11.2047C13.2217 11.3265 13.2961 11.4371 13.3898 11.5301C13.4828 11.6238 13.5934 11.6982 13.7153 11.749C13.8371 11.7997 13.9678 11.8259 14.0998 11.8259C14.2318 11.8259 14.3626 11.7997 14.4844 11.749C14.6063 11.6982 14.7169 11.6238 14.8098 11.5301Z" fill="#0077BD"/>
</svg>
