<svg width="20" height="12" viewBox="0 0 20 12" fill="none" xmlns="http://www.w3.org/2000/svg">
<path d="M8.71 5.29L6.21 2.79C6.0217 2.6017 5.7663 2.49591 5.5 2.49591C5.2337 2.49591 4.9783 2.6017 4.79 2.79C4.6017 2.9783 4.49591 3.2337 4.49591 3.5C4.49591 3.63186 4.52188 3.76243 4.57234 3.88425C4.6228 4.00607 4.69676 4.11676 4.79 4.21L5.59 5H2V1C2 0.734784 1.89464 0.48043 1.70711 0.292893C1.51957 0.105357 1.26522 0 1 0C0.734784 0 0.48043 0.105357 0.292893 0.292893C0.105357 0.48043 0 0.734784 0 1V11C0 11.2652 0.105357 11.5196 0.292893 11.7071C0.48043 11.8946 0.734784 12 1 12C1.26522 12 1.51957 11.8946 1.70711 11.7071C1.89464 11.5196 2 11.2652 2 11V7H5.59L4.79 7.79C4.69627 7.88296 4.62188 7.99356 4.57111 8.11542C4.52034 8.23728 4.4942 8.36799 4.4942 8.5C4.4942 8.63201 4.52034 8.76272 4.57111 8.88458C4.62188 9.00644 4.69627 9.11704 4.79 9.21C4.88296 9.30373 4.99356 9.37812 5.11542 9.42889C5.23728 9.47966 5.36799 9.5058 5.5 9.5058C5.63201 9.5058 5.76272 9.47966 5.88458 9.42889C6.00644 9.37812 6.11704 9.30373 6.21 9.21L8.71 6.71C8.80104 6.6149 8.87241 6.50275 8.92 6.38C9.02002 6.13654 9.02002 5.86346 8.92 5.62C8.87241 5.49725 8.80104 5.3851 8.71 5.29ZM19 0C18.7348 0 18.4804 0.105357 18.2929 0.292893C18.1054 0.48043 18 0.734784 18 1V5H14.41L15.21 4.21C15.3032 4.11676 15.3772 4.00607 15.4277 3.88425C15.4781 3.76243 15.5041 3.63186 15.5041 3.5C15.5041 3.36814 15.4781 3.23757 15.4277 3.11575C15.3772 2.99393 15.3032 2.88324 15.21 2.79C15.1168 2.69676 15.0061 2.6228 14.8842 2.57234C14.7624 2.52188 14.6319 2.49591 14.5 2.49591C14.3681 2.49591 14.2376 2.52188 14.1158 2.57234C13.9939 2.6228 13.8832 2.69676 13.79 2.79L11.29 5.29C11.199 5.3851 11.1276 5.49725 11.08 5.62C10.98 5.86346 10.98 6.13654 11.08 6.38C11.1276 6.50275 11.199 6.6149 11.29 6.71L13.79 9.21C13.883 9.30373 13.9936 9.37812 14.1154 9.42889C14.2373 9.47966 14.368 9.5058 14.5 9.5058C14.632 9.5058 14.7627 9.47966 14.8846 9.42889C15.0064 9.37812 15.117 9.30373 15.21 9.21C15.3037 9.11704 15.3781 9.00644 15.4289 8.88458C15.4797 8.76272 15.5058 8.63201 15.5058 8.5C15.5058 8.36799 15.4797 8.23728 15.4289 8.11542C15.3781 7.99356 15.3037 7.88296 15.21 7.79L14.41 7H18V11C18 11.2652 18.1054 11.5196 18.2929 11.7071C18.4804 11.8946 18.7348 12 19 12C19.2652 12 19.5196 11.8946 19.7071 11.7071C19.8946 11.5196 20 11.2652 20 11V1C20 0.734784 19.8946 0.48043 19.7071 0.292893C19.5196 0.105357 19.2652 0 19 0Z" fill="#0077BD"/>
</svg>
