<svg width="20" height="20" viewBox="0 0 20 20" fill="none" xmlns="http://www.w3.org/2000/svg">
<path d="M17.7778 0H2.22222C1.63285 0 1.06762 0.234126 0.650874 0.650874C0.234126 1.06762 0 1.63285 0 2.22222V17.7778C0 18.3671 0.234126 18.9324 0.650874 19.3491C1.06762 19.7659 1.63285 20 2.22222 20H17.7778C18.3671 20 18.9324 19.7659 19.3491 19.3491C19.7659 18.9324 20 18.3671 20 17.7778V2.22222C20 1.63285 19.7659 1.06762 19.3491 0.650874C18.9324 0.234126 18.3671 0 17.7778 0ZM17.7778 17.7778H2.22222V2.22222H17.7778V17.7778ZM6.66667 15.5556H4.44444V10H6.66667V15.5556ZM11.1111 15.5556H8.88889V4.44444H11.1111V15.5556ZM15.5556 15.5556H13.3333V7.77778H15.5556V15.5556Z" fill="#57808D"/>
</svg>
