<svg width="15" height="16" viewBox="0 0 15 16" fill="none" xmlns="http://www.w3.org/2000/svg">
<path d="M14.6049 14.2175L11.8744 11.4575C12.9343 10.1108 13.4476 8.40146 13.3087 6.68096C13.1698 4.96047 12.3894 3.35958 11.1278 2.20747C9.86615 1.05537 8.21932 0.439622 6.52589 0.486842C4.83245 0.534062 3.22113 1.24066 2.02324 2.46135C0.825352 3.68203 0.131949 5.32402 0.0856109 7.04968C0.0392724 8.77534 0.64352 10.4535 1.77411 11.7391C2.9047 13.0247 4.47569 13.8201 6.16406 13.9616C7.85242 14.1031 9.52983 13.5801 10.8514 12.5L13.5598 15.26C13.6283 15.3303 13.7097 15.3861 13.7993 15.4242C13.889 15.4622 13.9852 15.4818 14.0824 15.4818C14.1795 15.4818 14.2757 15.4622 14.3654 15.4242C14.4551 15.3861 14.5365 15.3303 14.6049 15.26C14.7376 15.1201 14.8118 14.9332 14.8118 14.7387C14.8118 14.5442 14.7376 14.3573 14.6049 14.2175ZM6.72245 12.5C5.70349 12.5 4.70742 12.1921 3.86018 11.6152C3.01295 11.0383 2.35261 10.2184 1.96267 9.25908C1.57273 8.29977 1.4707 7.24417 1.66949 6.22577C1.86828 5.20737 2.35896 4.2719 3.07947 3.53768C3.79999 2.80345 4.71798 2.30344 5.71736 2.10087C6.71674 1.89829 7.75262 2.00226 8.69402 2.39962C9.63542 2.79698 10.44 3.46989 11.0061 4.33325C11.5723 5.1966 11.8744 6.21164 11.8744 7.24999C11.8744 8.64238 11.3316 9.97773 10.3654 10.9623C9.39926 11.9469 8.08884 12.5 6.72245 12.5Z" fill="#1C639F"/>
</svg>
