<svg width="22" height="22" viewBox="0 0 22 22" fill="none" xmlns="http://www.w3.org/2000/svg">
<path d="M3.7599 9.58991C4.02511 9.62439 4.29316 9.5521 4.50508 9.38894C4.71699 9.22579 4.85542 8.98513 4.88989 8.71991C4.92437 8.4547 4.85208 8.18665 4.68893 7.97473C4.52577 7.76282 4.28511 7.62439 4.01989 7.58991L2.25989 7.14991C2.13158 7.11058 1.99666 7.09747 1.86318 7.11138C1.72969 7.12529 1.60037 7.16592 1.48292 7.23086C1.36547 7.2958 1.2623 7.38371 1.17954 7.48937C1.09679 7.59503 1.03614 7.71626 1.00123 7.84584C0.966315 7.97543 0.957842 8.11072 0.976316 8.24365C0.99479 8.37658 1.03983 8.50443 1.10876 8.61958C1.17769 8.73474 1.26909 8.83484 1.37752 8.91393C1.48595 8.99301 1.60919 9.04946 1.73989 9.07991L3.49989 9.54991C3.58367 9.57787 3.67159 9.5914 3.7599 9.58991ZM7.61989 3.99991C7.6785 4.21808 7.80923 4.40997 7.99082 4.54434C8.1724 4.67871 8.39413 4.74765 8.61989 4.73991C8.70601 4.75374 8.79378 4.75374 8.8799 4.73991C9.13371 4.6697 9.34958 4.5022 9.48064 4.27378C9.6117 4.04537 9.64736 3.77447 9.5799 3.51991L9.10989 1.75991C9.07944 1.62921 9.02299 1.50597 8.94391 1.39754C8.86482 1.28911 8.76472 1.19771 8.64956 1.12878C8.53441 1.05985 8.40656 1.01481 8.27363 0.996336C8.1407 0.977862 8.00541 0.986335 7.87582 1.02125C7.74624 1.05616 7.62501 1.11681 7.51935 1.19956C7.4137 1.28232 7.32578 1.38549 7.26084 1.50294C7.1959 1.62039 7.15527 1.74971 7.14136 1.8832C7.12745 2.01668 7.14056 2.1516 7.1799 2.27991L7.61989 3.99991ZM12.4499 13.9999C12.3565 13.9016 12.244 13.8233 12.1194 13.7698C11.9948 13.7163 11.8605 13.6887 11.7249 13.6887C11.5893 13.6887 11.455 13.7163 11.3304 13.7698C11.2058 13.8233 11.0933 13.9016 10.9999 13.9999L7.4999 17.5599C7.08838 17.9547 6.54017 18.1752 5.96989 18.1752C5.39961 18.1752 4.85141 17.9547 4.43989 17.5599C4.23732 17.3599 4.07648 17.1217 3.9667 16.8591C3.85692 16.5964 3.80039 16.3146 3.80039 16.0299C3.80039 15.7453 3.85692 15.4634 3.9667 15.2008C4.07648 14.9381 4.23732 14.6999 4.43989 14.4999L7.9999 10.9999C8.10458 10.9103 8.1896 10.7999 8.24962 10.6759C8.30964 10.5518 8.34337 10.4167 8.34869 10.279C8.35401 10.1412 8.33081 10.0039 8.28053 9.87559C8.23026 9.74727 8.154 9.63072 8.05655 9.53326C7.95909 9.43581 7.84254 9.35955 7.71422 9.30928C7.58589 9.259 7.44856 9.2358 7.31084 9.24112C7.17312 9.24644 7.03799 9.28016 6.91393 9.34019C6.78986 9.40021 6.67954 9.48523 6.5899 9.58991L2.99989 13.0799C2.61118 13.4686 2.30284 13.9301 2.09247 14.438C1.8821 14.9459 1.77382 15.4902 1.77382 16.0399C1.77382 16.5896 1.8821 17.134 2.09247 17.6419C2.30284 18.1497 2.61118 18.6112 2.99989 18.9999C3.38861 19.3886 3.85008 19.697 4.35795 19.9073C4.86583 20.1177 5.41017 20.226 5.9599 20.226C6.50962 20.226 7.05396 20.1177 7.56184 19.9073C8.06971 19.697 8.53118 19.3886 8.9199 18.9999L12.4499 15.4699C12.5514 15.3763 12.6324 15.2626 12.6878 15.1361C12.7432 15.0096 12.7718 14.873 12.7718 14.7349C12.7718 14.5968 12.7432 14.4602 12.6878 14.3337C12.6324 14.2072 12.5514 14.0936 12.4499 13.9999ZM4.17989 5.58991C4.36616 5.77466 4.61756 5.87881 4.87989 5.87991C5.0115 5.88068 5.14196 5.85545 5.2638 5.80569C5.38564 5.75592 5.49646 5.6826 5.5899 5.58991C5.77615 5.40255 5.88069 5.1491 5.88069 4.88491C5.88069 4.62073 5.77615 4.36728 5.5899 4.17991L4.2999 2.88991C4.10859 2.72609 3.86252 2.64048 3.61084 2.6502C3.35917 2.65992 3.12043 2.76426 2.94233 2.94235C2.76424 3.12045 2.6599 3.35918 2.65018 3.61086C2.64046 3.86254 2.72607 4.10861 2.88989 4.29991L4.17989 5.58991ZM20.2599 12.9199L18.4999 12.4499C18.3695 12.4048 18.2311 12.3872 18.0936 12.3982C17.956 12.4092 17.8222 12.4486 17.7006 12.5138C17.579 12.579 17.4722 12.6687 17.3869 12.7772C17.3017 12.8857 17.2398 13.0107 17.2052 13.1443C17.1706 13.2778 17.164 13.4172 17.1858 13.5534C17.2077 13.6897 17.2575 13.8199 17.3321 13.936C17.4068 14.0521 17.5047 14.1514 17.6196 14.2278C17.7345 14.3042 17.864 14.356 17.9999 14.3799L19.7599 14.8499H20.0199C20.2851 14.8844 20.5532 14.8121 20.7651 14.6489C20.977 14.4858 21.1154 14.2451 21.1499 13.9799C21.1844 13.7147 21.1121 13.4466 20.9489 13.2347C20.7858 13.0228 20.5451 12.8844 20.2799 12.8499L20.2599 12.9199ZM14.3799 17.9999C14.3452 17.8731 14.2858 17.7544 14.2052 17.6506C14.1246 17.5468 14.0243 17.4599 13.91 17.3949C13.7958 17.3299 13.6698 17.288 13.5394 17.2717C13.409 17.2554 13.2766 17.265 13.1499 17.2999C12.8961 17.3701 12.6802 17.5376 12.5492 17.766C12.4181 17.9945 12.3824 18.2654 12.4499 18.5199L12.9199 20.2799C12.9785 20.4981 13.1092 20.69 13.2908 20.8243C13.4724 20.9587 13.6941 21.0276 13.9199 21.0199C14.0063 21.0297 14.0935 21.0297 14.1799 21.0199C14.3076 20.9863 14.4273 20.9277 14.5322 20.8475C14.6372 20.7673 14.7252 20.6672 14.7912 20.5528C14.8572 20.4385 14.8999 20.3122 14.9168 20.1813C14.9338 20.0503 14.9246 19.9173 14.8899 19.7899L14.3799 17.9999ZM17.8199 16.4299C17.6286 16.2661 17.3825 16.1805 17.1308 16.1902C16.8792 16.1999 16.6404 16.3043 16.4623 16.4824C16.2842 16.6604 16.1799 16.8992 16.1702 17.1509C16.1605 17.4025 16.2461 17.6486 16.4099 17.8399L17.6999 19.1299C17.8873 19.3162 18.1407 19.4207 18.4049 19.4207C18.6691 19.4207 18.9225 19.3162 19.1099 19.1299C19.2961 18.9426 19.4007 18.6891 19.4007 18.4249C19.4007 18.1607 19.2961 17.9073 19.1099 17.7199L17.8199 16.4299ZM20.1999 5.99991C20.2154 5.16835 19.9814 4.35122 19.5279 3.65401C19.0744 2.95681 18.4224 2.41154 17.6559 2.08859C16.8895 1.76565 16.0438 1.67987 15.2281 1.84231C14.4124 2.00476 13.6641 2.40798 13.0799 2.99991L9.5499 6.55991C9.45534 6.65512 9.38047 6.76802 9.32955 6.89217C9.27863 7.01631 9.25266 7.14927 9.25313 7.28345C9.25359 7.41763 9.28048 7.55041 9.33226 7.67419C9.38403 7.79798 9.45969 7.91036 9.5549 8.00491C9.6501 8.09947 9.763 8.17434 9.88715 8.22526C10.0113 8.27618 10.1442 8.30215 10.2784 8.30168C10.4126 8.30122 10.5454 8.27433 10.6692 8.22255C10.793 8.17078 10.9053 8.09512 10.9999 7.99991L14.4999 4.43991C14.9114 4.04511 15.4596 3.82466 16.0299 3.82466C16.6002 3.82466 17.1484 4.04511 17.5599 4.43991C17.7625 4.63991 17.9233 4.87814 18.0331 5.14078C18.1429 5.40342 18.1994 5.68525 18.1994 5.96991C18.1994 6.25458 18.1429 6.53641 18.0331 6.79905C17.9233 7.06169 17.7625 7.29992 17.5599 7.49991L13.9999 10.9999C13.8136 11.1873 13.7091 11.4407 13.7091 11.7049C13.7091 11.9691 13.8136 12.2226 13.9999 12.4099C14.1873 12.5962 14.4407 12.7007 14.7049 12.7007C14.9691 12.7007 15.2225 12.5962 15.4099 12.4099L18.9999 8.91991C19.7653 8.14026 20.1959 7.09247 20.1999 5.99991Z" fill="#0077BD"/>
</svg>
