<svg width="24" height="24" viewBox="0 0 24 24" fill="none" xmlns="http://www.w3.org/2000/svg">
<path d="M21.7249 11.29L19.2249 8.79C19.0349 8.6 18.7849 8.5 18.5149 8.5C18.2449 8.5 17.9949 8.61 17.8049 8.79C17.6149 8.97 17.5149 9.23 17.5149 9.5C17.5149 9.63 17.5449 9.76 17.5949 9.88C17.6449 10 17.7149 10.11 17.8149 10.21L18.6149 11H15.0249V7C15.0249 6.73 14.9149 6.48 14.7349 6.29C14.5449 6.1 14.2949 6 14.0249 6C13.7549 6 13.5049 6.11 13.3149 6.29C13.1249 6.48 13.0249 6.73 13.0249 7V17C13.0249 17.27 13.1349 17.52 13.3149 17.71C13.5049 17.9 13.7549 18 14.0249 18C14.2949 18 14.5449 17.89 14.7349 17.71C14.9249 17.52 15.0249 17.27 15.0249 17V13H18.6149L17.8149 13.79C17.7249 13.88 17.6449 13.99 17.5949 14.12C17.5449 14.25 17.5149 14.37 17.5149 14.5C17.5149 14.63 17.5449 14.76 17.5949 14.88C17.6449 15 17.7249 15.11 17.8149 15.21C17.9049 15.3 18.0149 15.38 18.1449 15.43C18.2749 15.48 18.3949 15.51 18.5249 15.51C18.6549 15.51 18.7849 15.48 18.9049 15.43C19.0249 15.38 19.1349 15.3 19.2349 15.21L21.7349 12.71C21.8249 12.61 21.8949 12.5 21.9449 12.38C22.0449 12.14 22.0449 11.86 21.9449 11.62C21.8949 11.5 21.8249 11.39 21.7349 11.29H21.7249Z" fill="#0077BD"/>
<path d="M2.285 12.71L4.785 15.21C4.975 15.4 5.225 15.5 5.495 15.5C5.765 15.5 6.015 15.39 6.205 15.21C6.395 15.03 6.495 14.77 6.495 14.5C6.495 14.37 6.465 14.24 6.415 14.12C6.365 14 6.295 13.89 6.195 13.79L5.395 13H8.985V17C8.985 17.27 9.095 17.52 9.275 17.71C9.465 17.9 9.715 18 9.985 18C10.255 18 10.505 17.89 10.695 17.71C10.885 17.52 10.985 17.27 10.985 17V7C10.985 6.73 10.875 6.48 10.695 6.29C10.505 6.1 10.255 6 9.985 6C9.715 6 9.465 6.11 9.275 6.29C9.085 6.48 8.985 6.73 8.985 7V11H5.405L6.205 10.21C6.295 10.12 6.375 10.01 6.425 9.88C6.475 9.75 6.505 9.63 6.505 9.5C6.505 9.37 6.475 9.24 6.425 9.12C6.375 9 6.295 8.89 6.205 8.79C6.115 8.7 6.005 8.62 5.875 8.57C5.745 8.52 5.625 8.49 5.495 8.49C5.365 8.49 5.235 8.52 5.115 8.57C4.995 8.62 4.885 8.7 4.785 8.79L2.285 11.29C2.195 11.39 2.125 11.5 2.075 11.62C1.975 11.86 1.975 12.14 2.075 12.38C2.125 12.5 2.195 12.61 2.285 12.71Z" fill="#0077BD"/>
</svg>
